<svg xmlns="http://www.w3.org/2000/svg" width="1920" height="174" viewBox="0 0 1920 174">
    <path id="prefix__Path_3646" d="M-61.478 244.365v5.784h8.611v-9.907h3.811v-16.9l45.2 4.9v16.306h9.6v-25.4h22.2l6.384-11.189 6.1 11.189h22.92v9.1h9.6v-31.7h40.267v2.77h3.115a.482.482 0 0 1 0 .965h-3.115v3.917h3.345a.48.48 0 0 1 0 .96h-3.345v3.922h3.345a.48.48 0 0 1 0 .96h-3.345v3.922h3.345a.482.482 0 0 1 0 .965h-3.345v3.917h3.345a.481.481 0 0 1 .475.485.476.476 0 0 1-.475.475h-3.345v3.926h3.345a.476.476 0 0 1 .475.475.481.481 0 0 1-.475.485h-3.345v3.917h3.115a.482.482 0 0 1 0 .965h-3.115v3.526h12.706l13.027-7.968 11.678 6.6 5.923-10.387h7.1V152.44h5.467v-4.848h27.893v4.848h9.7v61.781h18.2v3.725h22.042v17.477h6.864V128.892h13.617v-3.264l-21.662-11.564h12.84v-5.918h36.845v5.918H308.3l-21.663 11.563v3.264h13.622v116.655h9.586v8.4h12.106v9.6h3.993c.293-5.04.624-9.859.989-13.934a13.519 13.519 0 0 1-.4-2.318 6.731 6.731 0 0 1-.009-2.174 5.561 5.561 0 0 0-1.123-.485 5.007 5.007 0 0 1-.2.922c-.269-.686-.84-.48-.787.2a2.632 2.632 0 0 0-.37-.5 1.246 1.246 0 0 0-.451.955c-.466-.144-.447-.744-.72-1.094a2.885 2.885 0 0 0-1.094.878 3.162 3.162 0 0 1-.106-1.075c-.494.216-.879.835-1.286 1.234a10.527 10.527 0 0 1 .043-1.234 7.681 7.681 0 0 0-1.747 1.291 8.262 8.262 0 0 0 .13-1.277 7.869 7.869 0 0 0-1.387 1.2 14.174 14.174 0 0 1 .36-1.445 3.22 3.22 0 0 1-1.752.936c.149-.442.514-.768.653-1.224a7.328 7.328 0 0 1-1.872.274c.269-.456.888-.61 1.286-.859a5.8 5.8 0 0 1-1.541-.379v-.038c.662-.259 1.479-.259 1.9-.979a3.355 3.355 0 0 0 .029.422c.509-.077.912-.413 1.445-.346.058.811 1.094.158 1.536-.067-.01.13.086.206.029.413a2.606 2.606 0 0 0 1.526-.36c-.24 1.315.48.715 1.238.312-.787.9.974.749 1.416.2.312.326-.082.653-.384.888.115 0 .23.019.355.019a5.656 5.656 0 0 1 1.541-.3 1.863 1.863 0 0 1-.9.331c.216.034.432.048.657.086a10.53 10.53 0 0 1 1.656.379c.057.01.115.053.173.067a.71.71 0 0 1 .149-.221 4.986 4.986 0 0 0-.6-.758 11.032 11.032 0 0 0-1.239-1.123 13.181 13.181 0 0 0-1.944-1.21l.072 1.042a3.414 3.414 0 0 0-.345-1.027.859.859 0 0 1-.317.792c-.048-.245-.235-.48-.3-.72-.086.187-.24.528-.345.744a5.648 5.648 0 0 0-.658-.893 1.131 1.131 0 0 1-.6.95 3.545 3.545 0 0 0-.355-.629c.029.754-.451 1.037-.9.394a2.047 2.047 0 0 1-1.238.442c.053-.091.086-.192.13-.264a12.306 12.306 0 0 1-2.083.278 3.615 3.615 0 0 1 1.114-.888c-.283.038-1.517-.082-1.517-.5 0-.379 1.162-.326 1.406-.514-.307-.23-.95-.23-1.022-.648a2.874 2.874 0 0 1 1.574-.024c-.283-.461-.1-.85.413-.83.394.034.869.71 1.224.883a7.385 7.385 0 0 1-.494-1.368c.73.254 1.21 1.166 1.949 1.469-.3-1.392.754-.067 1.042.072a2.146 2.146 0 0 1 0-.941c.293.346.394.83.657 1.2a.728.728 0 0 0-.057-.245 1.023 1.023 0 0 1 .667 1.066 16.742 16.742 0 0 1 2.184.989 13.354 13.354 0 0 1 1.445 1.027 1.09 1.09 0 0 0 .11.106l-1.555-3.317a2.332 2.332 0 0 1-.11-.341c-.077 0-.163.014-.235.014a.918.918 0 0 1 .187-.221c-.019-.115-.048-.221-.067-.331-.576.048-2.967-.907-2.861-1.4a.79.79 0 0 0 .835 0 8.15 8.15 0 0 0-1.406-1.181 3.354 3.354 0 0 1 1.6-.014 2.521 2.521 0 0 0-1.378-.96c.456-.61 1.325-.115 1.9.091-.187-.442-.581-.936-.437-1.4.763.2 1.214 1.022 1.627 1.646a12.811 12.811 0 0 0 .13-1.445c.029.494.053 1.992.5 2.424a4.7 4.7 0 0 0 .317-1.061c.173.379.365.835.715.989a8.453 8.453 0 0 1-.043-.869 2.725 2.725 0 0 1 .346.389 6.771 6.771 0 0 1 .5-.475c-.043-.2-.091-.408-.12-.59-.523-.1-1.061-.288-1.061-.6 0-.346.71-.418 1.262-.514v-.408c-.36-.115-.706-.25-.763-.61a3 3 0 0 1 .758-.11c-.038-3.6-.086-7.056-.168-10.262-.3-1.2-.379-2.4-.619-3.7-.293-1.632-1.358-3.408-1.214-5.126l-.518-.019c-1.138-.01-2.3-.019-3.427 0-1.176.048-2.294.139-3.437.293a1.322 1.322 0 0 1-.461.058l.13.168c-.523.984-.427 3.59-.61 5.006a7.959 7.959 0 0 0-1.459-2.563c-.25.394-.7.562-1 .859-1.733-.427-3.662.149-5.434-.158a5.686 5.686 0 0 0 2.515-1.589 4.9 4.9 0 0 1-1.983-2.563 17.933 17.933 0 0 0 3.327.322 4.366 4.366 0 0 1-.768-1.69 2.425 2.425 0 0 0 1.353 1.142 17.272 17.272 0 0 0-.178-2.669c.432.821 1.541 1.3 2.275 1.886.019-.283.182-.686.178-.907a7.051 7.051 0 0 0 1 2.054l.37.442c.23-.043.437-.134.643-.178a24.6 24.6 0 0 1 3.432-.706c1.152-.178 2.318-.326 3.461-.442l.979-.067a4.753 4.753 0 0 1 .351-.494c-.091-.062-.178-.106-.279-.178-.95-.7-1.906-1.349-2.9-2.021-.552-.36-1.094-.706-1.656-1.018-.341.35-.682.869-.979 1.238a2.6 2.6 0 0 0-.125-1.656c-.73-.936-.389-.067-1.056.048-1.239.245-.379 1.123-1.445-.115-.619-.715-.581-1.522-1.368-2.059-.59.691-1.061 1.613-2.026 1.776.086-.182.206-.418.3-.614-1.608-.072-3.25.715-4.92.48a2.132 2.132 0 0 1 1.123-.845c-.869-.365-2.433.062-2.65-.994.638.134 2.165.077 2.251-.778.048-.442-1.224-1.229-1.416-1.771.72.206 1.368.778 2.126.542a20.861 20.861 0 0 0-.739-2.227c.336.331 1.565 2.194 2.381 1.728.6-.346.115-2.712.8-3.475.015 1.051.49 2.765 1.426 3.235a4.266 4.266 0 0 1 1.786-2.323c-.077 1.166.946 4.474 2.5 2.794-.038 1.354.941 2.942 2.2 1.339a1.913 1.913 0 0 0 .274 1.891v.029c.912.662 1.819 1.358 2.745 1.958.845.552 1.7 1.109 2.544 1.776a7 7 0 0 0-1.229-4.118 3.583 3.583 0 0 1-.912-1.987 1.443 1.443 0 0 0 .461.288 8.162 8.162 0 0 0-.917-2.15c-.662-.811-5.7-4.646-5.971-5.362.259.134.71.23.965.374a13.612 13.612 0 0 1-1.1-2.544c.571.36.984.922 1.69 1.027a6.994 6.994 0 0 1 .446-2.827 20.273 20.273 0 0 0 .518 3.048c1.7-2.659 1.234.082 1.829 1.675.3-.37.807-.619 1.133-.984.5.73.192 2.621-.106 3.907.317.485.634.989.936 1.488a23.549 23.549 0 0 1 1.315 2.458c.264-.869-.336-1.8-.13-2.731.158.226.441.47.59.662a10.8 10.8 0 0 1-.091-2.006c.13.259.336.466.446.662.422-1.08-.01-2.669-.149-3.792a2.392 2.392 0 0 0 .624.835 25.624 25.624 0 0 1-.12-4.349 7.589 7.589 0 0 0 .432 1.992c.077-1.574.816-3.024.816-4.5a11.775 11.775 0 0 1 .394 4.584c.355-.586.768-1.166 1.445-1.214a14.123 14.123 0 0 0-.739 3.6c.672-.619 1.253-1.6 2-2.184-.043.562-.106 1.066-.2 1.6.682-.245 1.1-1.066 1.454-1.752a9.014 9.014 0 0 0 .456 2.026c.893-.758 1.1-3.538 1.21-4.45-.01.917.029 1.834.1 2.736.835-1.152 1.752-2.621 3.2-2.885.216.85-.581 1.714-.946 2.486 1.046-.288 2.736-1.1 3.495.086a4.974 4.974 0 0 0-2.664 1.584 6.8 6.8 0 0 1 2.962.245 16.954 16.954 0 0 0-2.718 1.993 1.283 1.283 0 0 0 1.522.13c.163.936-4.387 2.419-5.472 2.256a5.265 5.265 0 0 1-.528 1.584l-3.259 5.976a1.821 1.821 0 0 0 .225-.168 18 18 0 0 1 2.822-1.69 23.119 23.119 0 0 1 4.157-1.608 1.9 1.9 0 0 1 1.354-1.92 1.647 1.647 0 0 0-.12.47 16.9 16.9 0 0 1 1.32-2.141 3.635 3.635 0 0 1-.1 1.7c.552-.216 2.659-2.549 1.939-.034 1.411-.48 2.414-2.059 3.811-2.453a17.366 17.366 0 0 1-1.1 2.472c.667-.274 1.67-1.488 2.362-1.474.96-.029 1.238.749.677 1.56a5.766 5.766 0 0 1 2.9.23c-.158.773-1.358.7-1.968 1.07.461.35 2.606.451 2.563 1.118-.034.8-2.366.864-2.87.768a6.348 6.348 0 0 1 1.963 1.81 26.1 26.1 0 0 1-3.845-.782 4.313 4.313 0 0 1 .192.48 3.675 3.675 0 0 1-2.237-.989c-.9 1.176-1.752.614-1.613-.8a12.275 12.275 0 0 0-.725 1.09 2.026 2.026 0 0 1-1.013-1.771 9.175 9.175 0 0 0-1.31 1.565c-.168-.418-.432-1.07-.562-1.435-.173.446-.523.888-.639 1.291a1.491 1.491 0 0 1-.48-1.488 5.5 5.5 0 0 0-.787 1.858l.264-1.882v-.038a21.57 21.57 0 0 0-3.739 2.016 14.3 14.3 0 0 0-2.438 1.973 10.14 10.14 0 0 0-1.2 1.286 2.639 2.639 0 0 1 .235.432c.115-.029.23-.082.35-.106a18.14 18.14 0 0 1 3.106-.509c.408-.029.811-.038 1.219-.038a3.888 3.888 0 0 1-1.646-.782 9.634 9.634 0 0 1 2.818.787 4.073 4.073 0 0 1 .682-.019c-.528-.48-1.2-1.123-.6-1.69.734 1.09 3.994 1.555 2.625-.211 1.368.816 2.64 2.035 2.357-.389a5.035 5.035 0 0 0 2.774.806c-.067-.384.1-.538.1-.758.783.466 2.64 1.8 2.832.307 1-.091 1.747.586 2.669.8-.019-.259.091-.557.082-.778.711 1.44 2.309 1.469 3.514 2.078a10.462 10.462 0 0 1-3.019.552c.715.518 1.838.835 2.309 1.728a12.684 12.684 0 0 1-3.47-.706c.235.85.864 1.488 1.056 2.366-1.085-.072-2.386-1.267-3.13-1.949a20.816 20.816 0 0 1 .5 2.7 13.11 13.11 0 0 0-2.429-2.381 18.955 18.955 0 0 0 .1 2.39 14.478 14.478 0 0 0-3.086-2.611 19.245 19.245 0 0 1-.058 2.285c-.72-.783-1.358-1.968-2.251-2.424a5.9 5.9 0 0 1-.312 1.978 5.593 5.593 0 0 0-1.925-1.738c-.552.629-.581 1.7-1.454 1.934a2.433 2.433 0 0 0-.72-1.819c-.226.259-.609.49-.763.9.173-1.286-.835-1.733-1.431-.494a11.527 11.527 0 0 1-.274-1.742 16.816 16.816 0 0 0-2.121.758 12.248 12.248 0 0 1-.288 4.042 25.7 25.7 0 0 1-1 4.282c.082 3.062.13 6.36.168 9.792.441.254.931.8 1.305.97a10.4 10.4 0 0 1-.667-1.79c.974.336 1.613 1.526 2.587 1.93-.394-1.839.984-.1 1.368.086a2.739 2.739 0 0 1 0-1.234c.384.456.518 1.1.864 1.594a1.7 1.7 0 0 0-.077-.336 1.356 1.356 0 0 1 .874 1.411 19.827 19.827 0 0 1 2.87 1.3 15.028 15.028 0 0 1 1.91 1.354c.058.043.1.106.139.134l-2.05-4.358a5.745 5.745 0 0 1-.264-1.07c-.038.206-.072.4-.105.6-.053.274-.091.562-.139.835-.043-.226-.211-.849-.427-1.618-1.2-.3-3.226-1.224-3.106-1.742a1.015 1.015 0 0 0 1.08 0 10.745 10.745 0 0 0-1.838-1.55 4.424 4.424 0 0 1 2.112-.029 3.388 3.388 0 0 0-1.814-1.253c.59-.806 1.733-.158 2.486.106-.245-.586-.763-1.229-.566-1.834 1 .264 1.584 1.339 2.121 2.174a17.5 17.5 0 0 0 .187-1.91c.038.658.067 2.626.662 3.192a5.889 5.889 0 0 0 .413-1.387c.225.485.48 1.094.941 1.3-.029-.384-.053-.739-.053-1.142.509.446.85 1.166 1.315 1.632a9.913 9.913 0 0 0-.365-2.578c.471.062.744.494.965.9a8.2 8.2 0 0 1 .49-3.206c-.058 1.051.374 2.112.365 3.235a4.738 4.738 0 0 0 .394-1.4 16.716 16.716 0 0 1-.283 3.072 1.584 1.584 0 0 0 .48-.557 6.353 6.353 0 0 0-.259 2.674 5.031 5.031 0 0 0 .336-.451 1.075 1.075 0 0 1 0 .35l.125-.067s-.043.034-.125.086c-.024.35-.13.71-.149 1.042.1-.13.317-.288.446-.451.1.672-.365 1.306-.216 1.934a17.61 17.61 0 0 1 1.042-1.68c.235-.365.49-.677.734-1.018-.153-.912-.293-2.266.1-2.76a7.143 7.143 0 0 1 .749.773c.5-1.128.283-3.086 1.387-1.128a19.876 19.876 0 0 0 .494-2.131 5 5 0 0 1 .182 1.992c.5-.019.821-.418 1.238-.653a10.328 10.328 0 0 1-.874 1.776c.168-.086.509-.134.677-.221-.221.49-3.955 2.986-4.45 3.528a5.8 5.8 0 0 0-.763 1.474.745.745 0 0 0 .355-.173 2.542 2.542 0 0 1-.729 1.344 4.64 4.64 0 0 0-1.042 2.851c.61-.389 1.238-.763 1.848-1.109.691-.4 1.382-.845 2.04-1.277a1.366 1.366 0 0 0 .278-1.32c.821 1.19 1.579.086 1.627-.878 1.013 1.253 1.877-1.027 1.877-1.858a3.1 3.1 0 0 1 1.171 1.723 2.855 2.855 0 0 0 1.152-2.227c.447.547-.01 2.227.413 2.506.562.374 1.5-.9 1.752-1.138-.168.523-.494 1.018-.629 1.536.533.226 1.023-.154 1.522-.269-.144.35-1.061.854-1.061 1.162.01.634 1.094.725 1.555.672-.2.773-1.291.365-1.911.59a1.786 1.786 0 0 1 .749.624c-1.19.115-2.314-.49-3.48-.533a2.33 2.33 0 0 1 .2.437c-.682-.154-.965-.821-1.339-1.339-.6.341-.61.922-1.07 1.392-.816.83-.168.254-1.018.029-.461-.115-.187-.73-.754-.082a1.744 1.744 0 0 0-.158 1.152 9.048 9.048 0 0 0-.639-.922c-.413.2-.816.422-1.219.653-.73.4-1.445.854-2.136 1.286a1.527 1.527 0 0 0-.2.13 3.5 3.5 0 0 1 .221.36l.667.091c.821.158 1.637.288 2.448.47a17.439 17.439 0 0 1 2.39.648c.163.043.293.115.442.158l.293-.3a4.738 4.738 0 0 0 .8-1.406c0 .154.072.446.072.648.567-.365 1.363-.672 1.709-1.234a14.349 14.349 0 0 0-.259 1.886 1.741 1.741 0 0 0 1.027-.739 3.192 3.192 0 0 1-.609 1.161 13.152 13.152 0 0 0 2.357-.106 3.472 3.472 0 0 1-1.512 1.742 3.846 3.846 0 0 0 1.7 1.219c-1.258.149-2.6-.336-3.85-.11-.216-.226-.523-.365-.653-.648-.586.4-.83 1.21-1.157 1.742-.067-1 .13-2.856-.206-3.566l.1-.091a1.387 1.387 0 0 0-.327-.091 23.155 23.155 0 0 0-2.4-.355c-.826-.072-1.622-.139-2.438-.158l-.375-.029c.029 1.243-.806 2.453-1.094 3.6-.221.893-.331 1.747-.6 2.578-.446 5.074-.854 11-1.229 17.208h.557v4.757c4.9-.182 11.069-.226 17.789-.192-.365-2.986-.734-5.875-1.109-8.41-.235-.619-.36-1.267-.557-1.934a10.744 10.744 0 0 1-.979-2.678l-.283.038c-.624.043-1.224.13-1.834.216a14.575 14.575 0 0 0-1.809.374 2.454 2.454 0 0 0-.245.077l.072.067a11.139 11.139 0 0 0 0 2.717c-.274-.394-.495-1-.955-1.277-.086.221-.317.341-.466.523-.97-.12-1.953.312-2.918.245a3.035 3.035 0 0 0 1.248-.989 2.692 2.692 0 0 1-1.215-1.277 10.148 10.148 0 0 0 1.79-.014 2.554 2.554 0 0 1-.514-.854 1.374 1.374 0 0 0 .816.518 10.022 10.022 0 0 0-.273-1.421 4.011 4.011 0 0 0 1.339.869c-.009-.154.039-.379.034-.5a3.984 3.984 0 0 0 .662 1.046l.245.2a2.727 2.727 0 0 1 .317-.139 15.091 15.091 0 0 1 1.79-.6c.6-.163 1.219-.3 1.829-.456l.509-.091a1.884 1.884 0 0 1 .154-.283l-.158-.1c-.547-.293-1.094-.6-1.675-.878-.3-.154-.619-.3-.95-.442a7.031 7.031 0 0 0-.446.73c.009-.245.009-.691-.168-.859-.442-.47-.226-.024-.566.077-.634.206-.11.624-.773.024-.37-.336-.408-.778-.864-1.008-.274.413-.461.931-.97 1.075.038-.106.082-.24.125-.35a17.725 17.725 0 0 1-2.606.557 1.353 1.353 0 0 1 .542-.509c-.475-.144-1.291.211-1.478-.36.355.01 1.176-.1 1.157-.576-.015-.235-.734-.571-.859-.84.384.058.778.336 1.171.134-.125-.384-.394-.744-.542-1.133.2.163.955 1.1 1.378.782.307-.221-.105-1.474.207-1.9.067.552.441 1.45.965 1.637a2.324 2.324 0 0 1 .816-1.363c.038.624.787 2.333 1.5 1.33.077.734.7 1.536 1.272.6a1.024 1.024 0 0 0 .264.989c.523.3 1.061.614 1.6.883.475.235.97.5 1.464.758a3.593 3.593 0 0 0-.922-2.112 1.982 1.982 0 0 1-.61-.989.779.779 0 0 0 .274.12 4.454 4.454 0 0 0-.639-1.1c-.4-.384-3.345-2.117-3.523-2.486.13.062.384.086.523.144a7.8 7.8 0 0 1-.739-1.306c.317.149.6.446.96.446a3.984 3.984 0 0 1 .063-1.522 13.76 13.76 0 0 0 .465 1.589c.754-1.531.667-.034 1.094.792a5.846 5.846 0 0 1 .533-.6c.327.36.278 1.382.192 2.088.207.24.413.47.6.73a14.666 14.666 0 0 1 .864 1.238c.072-.48-.293-.946-.25-1.454.11.11.278.216.36.322a6.9 6.9 0 0 1-.177-1.07 4.332 4.332 0 0 0 .288.331 5 5 0 0 0-.317-2.021 1.415 1.415 0 0 0 .379.4 13.654 13.654 0 0 1-.341-2.318 4.007 4.007 0 0 0 .365 1.042c-.062-.85.23-1.666.144-2.462a6.265 6.265 0 0 1 .494 2.41c.158-.312.341-.648.7-.72a7.718 7.718 0 0 0-.163 1.968c.331-.379.557-.936.931-1.291.01.3.01.576.01.859.341-.168.5-.634.653-1.018a5.043 5.043 0 0 0 .379 1.032c.422-.437.365-1.944.365-2.443a10.977 10.977 0 0 0 .225 1.44c.365-.648.768-1.493 1.517-1.742.168.456-.192.97-.365 1.421.562-.235 1.411-.778 1.891-.192a2.593 2.593 0 0 0-1.327 1.041 3.311 3.311 0 0 1 1.6-.077 9.29 9.29 0 0 0-1.329 1.248.743.743 0 0 0 .83-.038c.134.485-2.2 1.574-2.779 1.55a4.492 4.492 0 0 1-.173.9l-1.368 3.384a.73.73 0 0 0 .105-.106 11.015 11.015 0 0 1 1.387-1.1 14.089 14.089 0 0 1 2.122-1.1 1.04 1.04 0 0 1 .6-1.118 2.532 2.532 0 0 0-.048.264c.245-.394.322-.888.6-1.253a1.977 1.977 0 0 1 .043.936c.293-.149 1.262-1.536 1.042-.115.72-.35 1.157-1.277 1.877-1.574a9.233 9.233 0 0 1-.422 1.387c.336-.192.792-.9 1.176-.955.49-.043.7.336.451.816a2.787 2.787 0 0 1 1.569-.072c-.038.427-.7.466-.974.7.254.178 1.406.062 1.426.437.024.422-1.214.614-1.483.6a3.744 3.744 0 0 1 1.162.826 11.508 11.508 0 0 1-2.1-.163c.043.067.091.173.139.25a2.034 2.034 0 0 1-1.262-.36c-.408.667-.9.413-.922-.35a5 5 0 0 0-.317.643 1.131 1.131 0 0 1-.648-.907 5.841 5.841 0 0 0-.609.936c-.115-.221-.293-.547-.394-.734-.053.235-.221.485-.264.734a.835.835 0 0 1-.346-.768 3.208 3.208 0 0 0-.293 1.042l.014-1.042a13.251 13.251 0 0 0-1.877 1.31 10.209 10.209 0 0 0-1.171 1.2 4.6 4.6 0 0 0-.557.773 1.18 1.18 0 0 1 .149.221 1.17 1.17 0 0 0 .168-.072 11.534 11.534 0 0 1 1.642-.47c.221-.048.432-.072.648-.115a1.928 1.928 0 0 1-.917-.278 4.756 4.756 0 0 1 1.555.211c.12-.014.245-.034.346-.038-.307-.226-.71-.528-.413-.869.451.523 2.222.581 1.387-.283.777.37 1.541.922 1.219-.374a2.676 2.676 0 0 0 1.545.274c-.062-.211.019-.293 0-.413.461.2 1.531.787 1.541-.019.533-.1.965.221 1.469.259-.014-.125.019-.307 0-.427.48.734 1.334.643 2.006.9a5.5 5.5 0 0 1-1.574.485c.413.211 1.051.35 1.339.778a7.142 7.142 0 0 1-1.886-.168c.168.451.547.758.715 1.186a3.208 3.208 0 0 1-1.8-.835 10.793 10.793 0 0 1 .442 1.426 7.159 7.159 0 0 0-1.455-1.118 11.235 11.235 0 0 0 .2 1.272 7.563 7.563 0 0 0-1.814-1.2 10.291 10.291 0 0 1 .12 1.224c-.432-.37-.845-.97-1.358-1.157a3.312 3.312 0 0 1-.048 1.075 3 3 0 0 0-1.133-.821c-.254.379-.2.965-.653 1.147a1.3 1.3 0 0 0-.514-.931c-.091.163-.274.307-.336.514.014-.677-.571-.854-.8-.154a4.242 4.242 0 0 1-.254-.912 6.6 6.6 0 0 0-1.094.538 6.766 6.766 0 0 1 .115 2.184 13.287 13.287 0 0 1-.274 2.333c.389 2.63.768 5.64 1.147 8.76 5.746.034 11.789.12 17.674.221.245-9.686.394-19.31.3-27.024-.2-.845-.259-1.714-.4-2.616-.2-1.171-.936-2.438-.821-3.672h-.37c-.826-.043-1.622-.034-2.448-.029-.807.01-1.613.082-2.419.168a1.41 1.41 0 0 0-.326.067l.091.11c-.394.686-.336 2.534-.48 3.542a5.115 5.115 0 0 0-1.027-1.843c-.149.283-.47.394-.7.6-1.234-.317-2.6.077-3.84-.182a3.727 3.727 0 0 0 1.786-1.08 3.436 3.436 0 0 1-1.368-1.853 15.047 15.047 0 0 0 2.328.293 3.3 3.3 0 0 1-.514-1.214 1.73 1.73 0 0 0 .965.816 12.659 12.659 0 0 0-.11-1.9c.3.586 1.075.955 1.6 1.354.019-.2.125-.485.134-.638a5.045 5.045 0 0 0 .691 1.474l.264.312c.149-.043.278-.091.451-.13a18.954 18.954 0 0 1 2.433-.466c.816-.12 1.642-.187 2.472-.288l.682-.034a1.846 1.846 0 0 1 .25-.341c-.062-.043-.13-.105-.2-.149-.663-.48-1.33-.984-2.035-1.44-.374-.254-.768-.509-1.161-.739a10.09 10.09 0 0 0-.71.864 1.718 1.718 0 0 0-.067-1.152c-.5-.686-.278-.067-.749.014-.878.163-.264.787-1.022-.1-.422-.514-.389-1.094-.955-1.474-.422.485-.749 1.138-1.445 1.238.067-.13.149-.3.226-.432-1.157-.038-2.313.485-3.509.278a1.838 1.838 0 0 1 .806-.576c-.6-.269-1.723.058-1.867-.725.456.082 1.55.072 1.6-.552.029-.312-.854-.874-.974-1.238.5.149.965.562 1.507.379-.091-.523-.384-1.042-.509-1.57.23.24 1.07 1.589 1.661 1.258.442-.235.115-1.954.6-2.458a2.844 2.844 0 0 0 .984 2.3 3.01 3.01 0 0 1 1.3-1.632c-.067.821.619 3.173 1.728 1.992-.029.979.643 2.122 1.555 1a1.349 1.349 0 0 0 .177 1.344c.629.47 1.277.974 1.939 1.426.576.384 1.176.816 1.762 1.238a4.709 4.709 0 0 0-.821-2.928 2.38 2.38 0 0 1-.624-1.392.784.784 0 0 0 .331.211 5.761 5.761 0 0 0-.648-1.541c-.451-.571-3.984-3.346-4.162-3.85.149.1.49.173.658.269a11.017 11.017 0 0 1-.744-1.834c.4.254.706.686 1.181.744a5.1 5.1 0 0 1 .341-1.973 18.126 18.126 0 0 0 .336 2.165c1.238-1.862.883.062 1.286 1.224a7.445 7.445 0 0 1 .806-.706c.355.518.12 1.853-.106 2.76.216.355.451.686.662 1.061.331.571.634 1.157.912 1.757.177-.614-.216-1.277-.072-1.939.1.168.317.341.408.475a9.762 9.762 0 0 1-.053-1.411 4.978 4.978 0 0 0 .317.47 6.238 6.238 0 0 0-.067-2.678 1.874 1.874 0 0 0 .432.59 17.439 17.439 0 0 1-.038-3.091 4.882 4.882 0 0 0 .283 1.421c.077-1.123.59-2.131.619-3.192a8.3 8.3 0 0 1 .235 3.23c.254-.374.552-.787 1.032-.816a10.34 10.34 0 0 0-.557 2.544c.5-.437.883-1.128 1.435-1.531-.038.4-.082.758-.139 1.133.47-.163.778-.754 1.032-1.224a6.076 6.076 0 0 0 .307 1.421c.638-.509.826-2.486.912-3.125a15.835 15.835 0 0 0 .029 1.91c.6-.787 1.262-1.819 2.294-2.006.139.614-.422 1.224-.72 1.786.778-.206 1.968-.768 2.491.082a3.354 3.354 0 0 0-1.9 1.118 4.305 4.305 0 0 1 2.1.182 10.82 10.82 0 0 0-1.949 1.406 1.039 1.039 0 0 0 1.089.077c.087.662-3.134 1.68-3.893 1.55a6.039 6.039 0 0 1-.384 1.142l-2.371 4.19a1.353 1.353 0 0 0 .158-.13 16.446 16.446 0 0 1 2.006-1.2 17.878 17.878 0 0 1 2.952-1.061 1.385 1.385 0 0 1 .979-1.354 3.428 3.428 0 0 0-.105.336c.394-.47.576-1.114.994-1.531a2.648 2.648 0 0 1-.105 1.229c.4-.144 1.91-1.786 1.378.019 1-.331 1.738-1.469 2.726-1.723a10.427 10.427 0 0 1-.792 1.728c.466-.182 1.181-1.027 1.69-1.042.662.034.874.566.456 1.142a3.892 3.892 0 0 1 2.074.182c-.139.552-.984.485-1.416.749.307.269 1.838.322 1.8.806-.048.557-1.675.6-2.04.518a4.977 4.977 0 0 1 1.373 1.282 16.475 16.475 0 0 1-2.712-.566c.048.1.086.23.144.341a2.559 2.559 0 0 1-1.579-.706c-.662.806-1.262.408-1.147-.6a5.315 5.315 0 0 0-.518.8 1.519 1.519 0 0 1-.7-1.315 8.07 8.07 0 0 0-.955 1.118c-.115-.293-.283-.763-.379-1.022-.115.312-.374.6-.466.917a1.1 1.1 0 0 1-.341-1.066 4.367 4.367 0 0 0-.552 1.306l.2-1.354a17.568 17.568 0 0 0-2.669 1.392 13.986 13.986 0 0 0-1.747 1.358 5.584 5.584 0 0 0-.854.922 2.566 2.566 0 0 1 .168.3c.077-.014.154-.053.235-.067a14.464 14.464 0 0 1 2.213-.326c.283-.024.576-.024.864-.053a2.591 2.591 0 0 1-1.152-.509 6.969 6.969 0 0 1 1.987.538c.168 0 .317 0 .47.01-.374-.346-.854-.806-.4-1.21.514.768 2.822 1.147 1.881-.12.941.614 1.838 1.469 1.651-.283a3.268 3.268 0 0 0 1.963.624c-.062-.274.082-.374.082-.533.542.341 1.853 1.286 2.006.245.706-.038 1.209.461 1.862.586.015-.168.087-.389.082-.552.494 1.032 1.627 1.07 2.472 1.517a7.315 7.315 0 0 1-2.15.355c.509.35 1.306.634 1.618 1.248a9.119 9.119 0 0 1-2.434-.547c.134.619.585 1.085.73 1.685a4.338 4.338 0 0 1-2.2-1.406 15.633 15.633 0 0 1 .307 1.93 8.853 8.853 0 0 0-1.689-1.7 12.407 12.407 0 0 0 .043 1.685 10.287 10.287 0 0 0-2.17-1.877 15.263 15.263 0 0 1-.053 1.618c-.494-.557-.95-1.4-1.574-1.738a4.343 4.343 0 0 1-.245 1.4 3.77 3.77 0 0 0-1.344-1.272c-.394.442-.427 1.224-1.056 1.378a1.655 1.655 0 0 0-.5-1.3c-.149.2-.413.35-.523.614.139-.888-.6-1.21-1.022-.346a5.764 5.764 0 0 1-.158-1.224 8.273 8.273 0 0 0-1.541.5 9.006 9.006 0 0 1-.211 2.87 19.758 19.758 0 0 1-.768 3c.1 7.781-.043 17.506-.274 27.3 6.864.125 13.421.254 18.85.336.293-4.92.6-9.619.974-13.6a14.716 14.716 0 0 1-.408-2.328 6.9 6.9 0 0 1-.01-2.179 7.4 7.4 0 0 0-1.123-.48 4.1 4.1 0 0 1-.192.922c-.269-.672-.849-.47-.8.211-.062-.211-.254-.341-.365-.494a1.32 1.32 0 0 0-.461.95c-.446-.154-.437-.739-.71-1.109a2.982 2.982 0 0 0-1.09.888 3.286 3.286 0 0 1-.1-1.07c-.49.221-.893.835-1.3 1.224-.048-.427.062-.821.053-1.224a7.839 7.839 0 0 0-1.742 1.291c.1-.4.072-.888.13-1.277a6.862 6.862 0 0 0-1.382 1.19 12.306 12.306 0 0 1 .341-1.445 3.114 3.114 0 0 1-1.742.931c.139-.442.509-.768.648-1.224a7.128 7.128 0 0 1-1.877.274c.274-.442.9-.61 1.306-.845a6.388 6.388 0 0 1-1.613-.389c.672-.307 1.526-.264 1.958-1.018-.01.12.029.293.029.427.5-.062.907-.4 1.454-.341.043.8 1.095.154 1.526-.062-.01.115.091.2.029.4a2.585 2.585 0 0 0 1.526-.355c-.24 1.306.49.715 1.238.3-.787.912.974.754 1.416.211.312.322-.077.643-.374.883.105 0 .225.014.345.014a5.6 5.6 0 0 1 1.536-.288 1.875 1.875 0 0 1-.9.317c.226.043.442.053.657.1a10.725 10.725 0 0 1 1.646.37c.067.019.125.053.187.067a.978.978 0 0 1 .144-.221 5.194 5.194 0 0 0-.6-.749 11.478 11.478 0 0 0-1.239-1.128 14.456 14.456 0 0 0-1.944-1.21l.067 1.037a3.149 3.149 0 0 0-.345-1.018.828.828 0 0 1-.307.782c-.058-.235-.235-.475-.312-.71-.086.182-.245.528-.336.744a7.017 7.017 0 0 0-.667-.907 1.158 1.158 0 0 1-.6.96 6.977 6.977 0 0 0-.346-.634c.024.773-.461 1.046-.9.394a2.054 2.054 0 0 1-1.243.451 2.739 2.739 0 0 1 .13-.264 12.356 12.356 0 0 1-2.093.278 3.513 3.513 0 0 1 1.123-.888c-.278.029-1.517-.086-1.517-.509 0-.379 1.157-.326 1.4-.514-.3-.226-.945-.226-1.013-.653a2.937 2.937 0 0 1 1.579-.014c-.293-.451-.1-.859.4-.83.394.034.883.715 1.238.883a7.239 7.239 0 0 1-.5-1.368c.725.264 1.219 1.157 1.963 1.474-.3-1.406.744-.082 1.027.062a2.2 2.2 0 0 1 0-.936 13.285 13.285 0 0 1 .667 1.21 1.371 1.371 0 0 0-.067-.259 1.044 1.044 0 0 1 .667 1.085 15.171 15.171 0 0 1 2.189.979 12.685 12.685 0 0 1 1.445 1.027.413.413 0 0 0 .106.1l-1.55-3.307a3.539 3.539 0 0 1-.221-.888c-.59.053-2.971-.9-2.87-1.4a.752.752 0 0 0 .835 0 8.645 8.645 0 0 0-1.4-1.171 3.476 3.476 0 0 1 1.6-.019 2.574 2.574 0 0 0-1.378-.95c.442-.614 1.315-.12 1.886.082-.187-.446-.576-.941-.437-1.4.773.211 1.2 1.022 1.622 1.656a13.043 13.043 0 0 0 .134-1.445c.029.494.048 2 .5 2.414a4.792 4.792 0 0 0 .317-1.051c.168.37.36.83.715.984a8.423 8.423 0 0 1-.048-.869c.4.346.653.893 1 1.248a8.028 8.028 0 0 0-.269-1.954c.355.038.562.37.73.672a6.227 6.227 0 0 1 .365-2.438c-.043.806.293 1.6.278 2.453a3.368 3.368 0 0 0 .3-1.051 12.971 12.971 0 0 1-.216 2.338 1.228 1.228 0 0 0 .365-.427 4.668 4.668 0 0 0-.2 2.03 2.777 2.777 0 0 0 .269-.35 6.491 6.491 0 0 1-.12 1.08c.067-.1.25-.226.336-.336.077.509-.269.984-.158 1.454.245-.437.5-.859.787-1.272.173-.274.365-.509.557-.768a3.494 3.494 0 0 1 .082-2.1c.158.187.432.355.562.586.379-.854.225-2.342 1.061-.854.187-.461.23-1.1.374-1.618a3.777 3.777 0 0 1 .139 1.507c.365-.014.619-.317.936-.49a8.1 8.1 0 0 1-.658 1.344c.125-.067.384-.1.509-.163-.168.374-3 2.266-3.374 2.669a4.216 4.216 0 0 0-.581 1.133.8.8 0 0 0 .269-.139 1.912 1.912 0 0 1-.562 1.022 3.628 3.628 0 0 0-.8 2.165c.47-.288.95-.576 1.406-.835.537-.307 1.056-.648 1.56-.974a1.015 1.015 0 0 0 .2-1c.629.9 1.21.062 1.239-.667.768.95 1.43-.778 1.43-1.421a2.366 2.366 0 0 1 .888 1.315 2.134 2.134 0 0 0 .869-1.685c.35.413-.01 1.685.322 1.886.432.3 1.142-.682 1.33-.85-.12.394-.374.768-.48 1.157.4.178.782-.115 1.166-.2-.115.274-.807.653-.807.893 0 .317.384.456.73.494.245-3.427.5-6.686.763-9.638a20.317 20.317 0 0 1-.533-3.058 9.265 9.265 0 0 1-.014-2.87 7.859 7.859 0 0 0-1.483-.624 6.055 6.055 0 0 1-.254 1.21c-.346-.9-1.114-.634-1.042.259a2.577 2.577 0 0 0-.485-.643 1.659 1.659 0 0 0-.59 1.253c-.615-.192-.59-.989-.946-1.454a3.775 3.775 0 0 0-1.44 1.166 4.046 4.046 0 0 1-.13-1.411c-.653.288-1.167 1.09-1.709 1.613-.058-.562.082-1.075.067-1.613a10.064 10.064 0 0 0-2.3 1.7 12.758 12.758 0 0 0 .168-1.675 9.249 9.249 0 0 0-1.814 1.565 15.353 15.353 0 0 1 .451-1.906 4.293 4.293 0 0 1-2.294 1.238c.187-.586.667-1.018.854-1.618a9.18 9.18 0 0 1-2.472.355c.36-.586 1.176-.806 1.709-1.123a7.309 7.309 0 0 1-2.117-.514c.883-.384 2.016-.336 2.587-1.325a4.7 4.7 0 0 0 .029.566c.667-.1 1.21-.547 1.91-.451.067 1.051 1.445.2 2.026-.1-.019.154.106.269.024.547a3.391 3.391 0 0 0 2.006-.47c-.312 1.718.643.936 1.627.394-1.027 1.2 1.3.984 1.872.269.408.427-.105.859-.494 1.171.149 0 .307.029.475.029a6.34 6.34 0 0 1 2.011-.389 2.605 2.605 0 0 1-1.181.427c.288.043.571.062.859.11a14.136 14.136 0 0 1 2.174.5c.081.014.163.067.235.086a1.6 1.6 0 0 1 .2-.3 7.058 7.058 0 0 0-.8-.989 13.891 13.891 0 0 0-1.632-1.464 16.737 16.737 0 0 0-2.558-1.608l.091 1.368a4.24 4.24 0 0 0-.447-1.339 1.1 1.1 0 0 1-.413 1.027c-.077-.312-.307-.624-.4-.936-.12.245-.317.691-.461.989a8.325 8.325 0 0 0-.854-1.2 1.544 1.544 0 0 1-.792 1.262 6.312 6.312 0 0 0-.47-.83c.038 1.013-.59 1.368-1.19.514a2.7 2.7 0 0 1-1.627.59c.062-.115.115-.25.168-.336a16.006 16.006 0 0 1-2.75.35 4.886 4.886 0 0 1 1.474-1.157c-.37.038-2-.12-2-.677 0-.5 1.526-.432 1.853-.677-.4-.293-1.262-.293-1.349-.85a3.927 3.927 0 0 1 2.083-.029c-.374-.6-.134-1.118.533-1.1.5.048 1.152.946 1.613 1.166a10.658 10.658 0 0 1-.658-1.79c.955.331 1.6 1.531 2.578 1.925-.394-1.838.984-.082 1.368.1a2.743 2.743 0 0 1 0-1.234c.389.442.518 1.094.869 1.589a1.786 1.786 0 0 0-.082-.336 1.34 1.34 0 0 1 .874 1.421 18.249 18.249 0 0 1 2.88 1.3 15.462 15.462 0 0 1 1.9 1.344.91.91 0 0 0 .149.134l-2.05-4.358a6.478 6.478 0 0 1-.3-1.166c-.758.072-3.9-1.19-3.758-1.838a1.01 1.01 0 0 0 1.094 0 10.711 10.711 0 0 0-1.838-1.55 4.484 4.484 0 0 1 2.112-.019 3.459 3.459 0 0 0-1.829-1.262c.6-.806 1.747-.158 2.5.12-.245-.59-.758-1.243-.571-1.848 1.013.269 1.594 1.354 2.127 2.174a17.649 17.649 0 0 0 .187-1.906c.038.653.067 2.63.667 3.192a6.155 6.155 0 0 0 .408-1.392c.23.494.485 1.094.941 1.3-.029-.379-.048-.744-.048-1.147.514.451.845 1.171 1.306 1.642a10.047 10.047 0 0 0-.355-2.578c.466.067.739.494.965.888a8.521 8.521 0 0 1 .475-3.206c-.053 1.056.384 2.107.379 3.235a4.724 4.724 0 0 0 .389-1.392 16.2 16.2 0 0 1-.278 3.072 1.807 1.807 0 0 0 .49-.557 5.987 5.987 0 0 0-.274 2.669 4.177 4.177 0 0 0 .341-.446 8.094 8.094 0 0 1-.154 1.411c.1-.139.322-.293.456-.446.082.677-.365 1.3-.23 1.93a19.381 19.381 0 0 1 1.042-1.685c.23-.36.494-.672.744-1-.163-.926-.3-2.266.1-2.765a8.682 8.682 0 0 1 .759.758c.49-1.123.274-3.072 1.382-1.123a19.5 19.5 0 0 0 .485-2.126 4.935 4.935 0 0 1 .2 1.992c.475-.019.811-.422 1.229-.643a12.308 12.308 0 0 1-.869 1.771c.168-.091.5-.13.667-.226-.216.49-3.946 2.986-4.44 3.518a5.8 5.8 0 0 0-.768 1.483.656.656 0 0 0 .346-.182 2.476 2.476 0 0 1-.72 1.354 4.781 4.781 0 0 0-1.056 2.842c.624-.374 1.253-.754 1.858-1.09.7-.4 1.382-.864 2.04-1.282a1.355 1.355 0 0 0 .283-1.325c.821 1.186 1.584.091 1.627-.874 1 1.253 1.877-1.032 1.877-1.867a2.561 2.561 0 0 1 1 1.306 1.053 1.053 0 0 1 .811-.192 3.785 3.785 0 0 0 .509-1.6c.283.35.206 1.171.216 1.786.278.106.547.221.768.3-.24-.581-.768-1.234-.571-1.838a2.992 2.992 0 0 1 1.574 1.31c.067-.082.134-.154.173-.192a1.209 1.209 0 0 1-.11.293c.173.254.341.514.495.763a16.636 16.636 0 0 0 .187-1.91 15.187 15.187 0 0 0 .2 2.146c.053-.01.091-.029.13-.034a.571.571 0 0 1-.091.149 1.911 1.911 0 0 0 .417.931 5.766 5.766 0 0 0 .418-1.4c.231.5.485 1.1.941 1.306-.024-.384-.053-.734-.053-1.142a20 20 0 0 1 1.31 1.637 10.011 10.011 0 0 0-.355-2.587c.47.072.739.5.965.9a8.438 8.438 0 0 1 .48-3.211c-.057 1.061.384 2.112.375 3.235a5.567 5.567 0 0 0 .394-1.392 16.677 16.677 0 0 1-.283 3.072 1.61 1.61 0 0 0 .48-.562 6.145 6.145 0 0 0-.264 2.674 3.927 3.927 0 0 0 .35-.442 10.335 10.335 0 0 1-.163 1.406c.1-.13.326-.288.451-.446.091.667-.365 1.306-.226 1.93.331-.59.677-1.147 1.042-1.685.235-.36.5-.677.744-1.013-.163-.922-.3-2.266.1-2.76a7.565 7.565 0 0 1 .749.768c.5-1.118.288-3.077 1.378-1.118a19.431 19.431 0 0 0 .5-2.141 5.024 5.024 0 0 1 .187 1.992c.485-.01.826-.422 1.234-.643a10.19 10.19 0 0 1-.879 1.776c.168-.1.509-.139.682-.23-.211.494-3.95 2.986-4.44 3.528a5.7 5.7 0 0 0-.768 1.478.716.716 0 0 0 .346-.173 2.588 2.588 0 0 1-.725 1.344 4.678 4.678 0 0 0-1.046 2.851c.614-.384 1.248-.773 1.853-1.1.7-.4 1.382-.85 2.045-1.277a1.4 1.4 0 0 0 .283-1.325c.811 1.19 1.579.091 1.622-.874 1 1.258 1.872-1.032 1.872-1.867a3.123 3.123 0 0 1 1.176 1.728 2.817 2.817 0 0 0 1.142-2.222c.451.547-.01 2.222.418 2.5.557.374 1.512-.9 1.757-1.118-.168.5-.5.994-.629 1.522.523.221 1.022-.158 1.522-.273-.154.36-1.061.85-1.061 1.161.014.634 1.094.725 1.555.672-.2.768-1.3.365-1.92.586a1.841 1.841 0 0 1 .758.634c-1.19.11-2.318-.5-3.47-.538a3.947 3.947 0 0 1 .182.446c-.677-.158-.96-.826-1.339-1.349-.6.336-.6.922-1.071 1.392-.821.835-.168.25-1.017.029-.456-.115-.2-.72-.754-.072a1.772 1.772 0 0 0-.154 1.142 9.786 9.786 0 0 0-.638-.917c-.422.2-.826.427-1.214.653-.744.408-1.45.85-2.15 1.277-.067.043-.13.091-.192.13a2.284 2.284 0 0 1 .221.365l.672.1c.816.154 1.642.283 2.448.466a17.628 17.628 0 0 1 2.39.653c.154.038.283.11.432.154l.3-.293a5.1 5.1 0 0 0 .792-1.411c0 .154.077.451.077.653a5.416 5.416 0 0 0 1.709-1.238 15.893 15.893 0 0 0-.264 1.886 1.828 1.828 0 0 0 1.037-.739 3.218 3.218 0 0 1-.619 1.162 12.7 12.7 0 0 0 2.357-.11 3.5 3.5 0 0 1-1.507 1.747 3.733 3.733 0 0 0 1.7 1.219c-1.267.158-2.6-.336-3.859-.11-.206-.226-.509-.37-.648-.653-.581.4-.821 1.214-1.157 1.747-.072-1.013.125-2.856-.211-3.571l.1-.086a1.67 1.67 0 0 0-.322-.086 20.022 20.022 0 0 0-2.4-.36c-.821-.067-1.613-.139-2.429-.158l-.374-.024c.024 1.234-.811 2.448-1.1 3.6-.226.9-.327 1.747-.6 2.578-.139 1.608-.269 3.283-.4 5.03a1.374 1.374 0 0 0 .705.355 3.717 3.717 0 0 1 .139-1.531 12.314 12.314 0 0 0 .374 1.618c.84-1.478.672 0 1.051.859a5.5 5.5 0 0 1 .571-.586 3.467 3.467 0 0 1 .077 2.1c.187.259.379.5.562.768.269.418.542.835.8 1.277.1-.466-.245-.95-.168-1.459.082.12.254.235.336.341a5.734 5.734 0 0 1-.12-1.075 3.608 3.608 0 0 0 .259.346 4.812 4.812 0 0 0-.2-2.03 1.384 1.384 0 0 0 .365.422 11.842 11.842 0 0 1-.211-2.342 3.872 3.872 0 0 0 .3 1.066c0-.12.015-.235.024-.35-.115-.269-.216-.542-.336-.811.259-.288.288-1.075.542-1.3l.019.072c-.01.192 0 .384 0 .566a2.583 2.583 0 0 0 .029-.638 3.486 3.486 0 0 1 .139.446c0-.038-.014-.072-.014-.11a8.662 8.662 0 0 1 .734-1.286c.206.221.341.274.293.648.278-.245.336-1.094.562-1.2a20.527 20.527 0 0 1-.821 3.326 1 1 0 0 1 .211-.072 7.927 7.927 0 0 0-.274 1.958c.35-.355.6-.9 1-1.238 0 .3-.019.571-.039.869.341-.163.533-.619.711-.989a4.718 4.718 0 0 0 .317 1.056c.446-.432.47-1.925.5-2.424a13.96 13.96 0 0 0 .134 1.445c.408-.624.859-1.445 1.622-1.646.149.456-.245.955-.437 1.392.576-.2 1.44-.691 1.9-.082a2.547 2.547 0 0 0-1.378.95 3.3 3.3 0 0 1 1.6.029 7.319 7.319 0 0 0-1.4 1.171.772.772 0 0 0 .83 0c.105.494-2.28 1.445-2.861 1.4a6.027 6.027 0 0 1-.216.888l-1.565 3.3c.034-.01.077-.067.115-.1a12.715 12.715 0 0 1 1.45-1.022 15.326 15.326 0 0 1 2.179-.989 1.03 1.03 0 0 1 .663-1.07 1.945 1.945 0 0 0-.058.254c.264-.37.365-.878.657-1.214a2.053 2.053 0 0 1 0 .936c.288-.125 1.339-1.464 1.042-.062.739-.312 1.229-1.214 1.958-1.474a7.316 7.316 0 0 1-.5 1.368c.355-.168.85-.845 1.224-.883.509-.019.7.374.418.83a2.939 2.939 0 0 1 1.579.019c-.082.427-.725.427-1.032.648.245.187 1.406.144 1.406.514 0 .422-1.234.538-1.517.518a3.569 3.569 0 0 1 1.113.874 11.89 11.89 0 0 1-2.083-.269c.043.067.082.173.129.254a2.065 2.065 0 0 1-1.238-.437c-.451.643-.931.37-.9-.4a3.685 3.685 0 0 0-.346.638 1.155 1.155 0 0 1-.61-.955 5.727 5.727 0 0 0-.658.9c-.105-.216-.259-.557-.346-.754-.067.24-.254.485-.3.72a.86.86 0 0 1-.317-.782 3.233 3.233 0 0 0-.341 1.018l.067-1.032a12.06 12.06 0 0 0-1.939 1.214 10.114 10.114 0 0 0-1.238 1.118 4.858 4.858 0 0 0-.609.749 1.053 1.053 0 0 1 .154.226.72.72 0 0 1 .168-.067 10 10 0 0 1 1.656-.374c.226-.038.442-.053.657-.091a2.049 2.049 0 0 1-.9-.322 5.366 5.366 0 0 1 1.541.283c.125 0 .245-.014.355-.014-.3-.235-.7-.562-.379-.888.437.552 2.2.706 1.421-.2.749.413 1.469 1.013 1.229-.3a2.59 2.59 0 0 0 1.526.35c-.058-.2.038-.283.029-.408.442.226 1.478.878 1.536.072.533-.072.945.274 1.454.336a2.474 2.474 0 0 0 .019-.418c.442.744 1.3.71 1.963 1a5.76 5.76 0 0 1-1.6.389c.4.235 1.018.408 1.3.854a7.155 7.155 0 0 1-1.882-.269c.139.456.5.782.653 1.229a3.406 3.406 0 0 1-1.752-.936 11.54 11.54 0 0 1 .36 1.445 6.953 6.953 0 0 0-1.387-1.19 8.106 8.106 0 0 0 .134 1.262 8.306 8.306 0 0 0-1.757-1.282 7.986 7.986 0 0 1 .048 1.224c-.408-.394-.792-1-1.286-1.224a3.224 3.224 0 0 1-.106 1.075 2.837 2.837 0 0 0-1.094-.893c-.269.36-.254.96-.72 1.1a1.246 1.246 0 0 0-.442-.946 1.828 1.828 0 0 0-.37.494c.048-.677-.528-.883-.787-.206a4.079 4.079 0 0 1-.206-.917 7.233 7.233 0 0 0-1.123.475 6.8 6.8 0 0 1-.01 2.184 14.166 14.166 0 0 1-.394 2.318c.173 2 .336 4.224.509 6.523 6.331.043 12.778.072 18.946.072.3-5.083.624-9.95 1-14.059a14.214 14.214 0 0 1-.4-2.328 6.9 6.9 0 0 1-.014-2.179 7.551 7.551 0 0 0-1.119-.48 5.509 5.509 0 0 1-.2.922c-.274-.672-.85-.47-.8.211-.062-.211-.259-.341-.365-.494a1.3 1.3 0 0 0-.456.95c-.451-.154-.442-.739-.715-1.109a2.928 2.928 0 0 0-1.085.888 3.163 3.163 0 0 1-.115-1.07c-.485.221-.879.835-1.286 1.224a11.342 11.342 0 0 1 .048-1.224 7.836 7.836 0 0 0-1.742 1.291 9.816 9.816 0 0 0 .12-1.277 7.4 7.4 0 0 0-1.378 1.19 12.37 12.37 0 0 1 .35-1.445 3.124 3.124 0 0 1-1.752.931c.149-.442.514-.768.653-1.224a7.1 7.1 0 0 1-1.877.274c.274-.442.9-.61 1.3-.845a6.412 6.412 0 0 1-1.6-.389c.667-.307 1.531-.264 1.958-1.018a3.368 3.368 0 0 0 .029.427c.5-.062.912-.4 1.445-.341.057.8 1.1.154 1.536-.062-.01.115.087.2.029.4a2.576 2.576 0 0 0 1.526-.355c-.23 1.306.49.715 1.238.3-.787.912.974.754 1.406.211.327.322-.062.643-.365.883.11 0 .225.014.345.014a5.636 5.636 0 0 1 1.541-.288 1.909 1.909 0 0 1-.9.317c.216.043.432.053.658.1a11.192 11.192 0 0 1 1.651.37c.063.019.12.053.187.067a.64.64 0 0 1 .139-.221 4.651 4.651 0 0 0-.6-.749 10.632 10.632 0 0 0-1.238-1.128 14.106 14.106 0 0 0-1.939-1.21l.063 1.037a2.943 2.943 0 0 0-.346-1.018.8.8 0 0 1-.312.782 7.407 7.407 0 0 0-.3-.71c-.086.182-.24.528-.341.744a6.559 6.559 0 0 0-.662-.907 1.138 1.138 0 0 1-.6.96 5.21 5.21 0 0 0-.346-.634c.024.773-.461 1.046-.912.394a2 2 0 0 1-1.234.451c.048-.086.082-.192.13-.264a12.371 12.371 0 0 1-2.088.278 3.446 3.446 0 0 1 1.118-.888c-.288.029-1.522-.086-1.522-.509 0-.379 1.162-.326 1.406-.514-.307-.226-.95-.226-1.013-.653a2.919 2.919 0 0 1 1.574-.014c-.293-.451-.1-.859.4-.83.394.034.879.715 1.224.883a8.3 8.3 0 0 1-.494-1.368c.725.264 1.209 1.157 1.958 1.474-.3-1.406.754-.082 1.032.062a2.273 2.273 0 0 1 0-.936 13.256 13.256 0 0 1 .662 1.21 1.079 1.079 0 0 0-.062-.259 1.038 1.038 0 0 1 .667 1.085 15.637 15.637 0 0 1 2.189.979 13.192 13.192 0 0 1 1.449 1.027.336.336 0 0 0 .1.1l-1.55-3.307a4.276 4.276 0 0 1-.23-.888c-.576.053-2.962-.9-2.861-1.4a.752.752 0 0 0 .835 0 8.317 8.317 0 0 0-1.406-1.171 3.519 3.519 0 0 1 1.613-.019 2.551 2.551 0 0 0-1.382-.95c.446-.614 1.32-.12 1.9.082-.2-.446-.6-.941-.451-1.4.768.211 1.214 1.022 1.622 1.656a11.967 11.967 0 0 0 .139-1.445c.029.494.053 2 .5 2.414a4.327 4.327 0 0 0 .322-1.051c.168.37.36.83.715.984a8.485 8.485 0 0 1-.038-.869c.394.346.643.893.989 1.248a7.377 7.377 0 0 0-.274-1.954c.365.038.571.37.739.672a6.4 6.4 0 0 1 .365-2.438c-.043.806.293 1.6.278 2.453a3.125 3.125 0 0 0 .3-1.051 12.17 12.17 0 0 1-.207 2.338 1.471 1.471 0 0 0 .365-.427 4.744 4.744 0 0 0-.206 2.03 2.777 2.777 0 0 0 .269-.35 6.453 6.453 0 0 1-.13 1.08c.082-.1.254-.226.336-.336.086.509-.254.984-.149 1.454.235-.437.5-.859.777-1.272.182-.274.374-.509.567-.768a3.58 3.58 0 0 1 .072-2.1 4.391 4.391 0 0 1 .571.586c.379-.854.226-2.342 1.061-.854a1.343 1.343 0 0 1 .067-.211c-.254-.806-.37-1.642-.581-2.52-.293-1.138-1.128-2.352-1.1-3.586l-.365.019c-.821.024-1.618.1-2.434.154-.811.077-1.6.211-2.4.365a1.3 1.3 0 0 0-.327.1l.091.086c-.331.72-.139 2.558-.207 3.571-.327-.542-.571-1.358-1.152-1.752-.139.293-.441.422-.657.648-1.258-.226-2.587.274-3.845.115a3.921 3.921 0 0 0 1.709-1.21 3.513 3.513 0 0 1-1.517-1.757 13.6 13.6 0 0 0 2.352.115 3.239 3.239 0 0 1-.619-1.166 1.8 1.8 0 0 0 1.032.734 13.721 13.721 0 0 0-.245-1.891c.336.571 1.133.888 1.694 1.238 0-.192.082-.485.082-.648a4.719 4.719 0 0 0 .8 1.421l.288.293c.144-.048.274-.115.442-.163a18.6 18.6 0 0 1 2.381-.653c.806-.168 1.632-.312 2.448-.47l.677-.091a1.973 1.973 0 0 1 .225-.355c-.072-.048-.139-.086-.206-.139-.7-.432-1.4-.869-2.141-1.277-.394-.221-.8-.442-1.21-.653a7.371 7.371 0 0 0-.634.926 1.865 1.865 0 0 0-.173-1.147c-.562-.653-.288-.043-.749.067-.854.221-.207.806-1.022-.029-.456-.47-.47-1.046-1.066-1.382-.384.514-.658 1.19-1.349 1.344.067-.134.135-.307.192-.451-1.152.048-2.275.653-3.456.542a1.787 1.787 0 0 1 .739-.634c-.629-.226-1.7.182-1.91-.576.456.034 1.546-.048 1.56-.677 0-.312-.926-.806-1.07-1.166.514.106 1 .485 1.526.269-.134-.518-.456-1-.629-1.526.25.221 1.19 1.507 1.747 1.128.432-.274-.024-1.963.418-2.5a2.884 2.884 0 0 0 1.162 2.222 3.02 3.02 0 0 1 1.171-1.728c0 .826.859 3.115 1.862 1.862.053.965.811 2.064 1.637.874a1.356 1.356 0 0 0 .278 1.33c.658.413 1.349.874 2.045 1.277.6.336 1.229.715 1.848 1.09a4.714 4.714 0 0 0-1.051-2.846 2.508 2.508 0 0 1-.72-1.349.687.687 0 0 0 .336.182 6.072 6.072 0 0 0-.749-1.483c-.5-.533-4.238-3.029-4.454-3.518.168.1.509.134.677.226a11.65 11.65 0 0 1-.873-1.771c.413.221.749.624 1.238.653a4.913 4.913 0 0 1 .192-2.006 16.558 16.558 0 0 0 .49 2.131c1.1-1.949.883 0 1.387 1.123a7.393 7.393 0 0 1 .744-.754c.389.494.259 1.834.1 2.76.245.331.509.643.744 1a19.724 19.724 0 0 1 1.037 1.68c.134-.624-.307-1.248-.216-1.925.115.154.341.317.442.446a9.118 9.118 0 0 1-.158-1.411 4.143 4.143 0 0 0 .355.446 6.194 6.194 0 0 0-.269-2.669 1.859 1.859 0 0 0 .475.557 15.816 15.816 0 0 1-.269-3.072 4.353 4.353 0 0 0 .389 1.392c-.014-1.128.422-2.179.365-3.235a8.252 8.252 0 0 1 .485 3.206c.221-.4.495-.821.97-.888a10.01 10.01 0 0 0-.37 2.578c.466-.47.8-1.181 1.325-1.642 0 .4-.034.773-.062 1.152a2.428 2.428 0 0 0 .936-1.306 6.187 6.187 0 0 0 .427 1.392c.586-.557.624-2.539.653-3.192a18.786 18.786 0 0 0 .182 1.906c.547-.821 1.118-1.906 2.131-2.174.187.6-.322 1.258-.571 1.848.3-.12.682-.283 1.061-.394a2.132 2.132 0 0 1 .187-.96c.072.278.12.576.178.874a1.045 1.045 0 0 1 1.07.36 4.607 4.607 0 0 0-.912.418 4.388 4.388 0 0 0 .154.48c1.1-1.949.883 0 1.378 1.123a8.012 8.012 0 0 1 .759-.754c.389.494.264 1.834.1 2.76.25.331.5.643.744 1a1.775 1.775 0 0 0 .12.2 12.828 12.828 0 0 1 1-.922 2.056 2.056 0 0 1-.019-.485 1.444 1.444 0 0 0 .254.322l.139-.072a7.776 7.776 0 0 0-.307-2.472 1.732 1.732 0 0 0 .475.557 16.617 16.617 0 0 1-.278-3.072 4.5 4.5 0 0 0 .4 1.392c-.015-1.128.427-2.179.365-3.235a8.336 8.336 0 0 1 .48 3.206c.225-.4.5-.821.97-.888a10 10 0 0 0-.365 2.578c.466-.47.8-1.181 1.32-1.642 0 .4-.029.773-.058 1.152.461-.211.715-.811.936-1.306a6.434 6.434 0 0 0 .422 1.392c.59-.557.629-2.539.658-3.192.029.653.1 1.286.182 1.906.538-.821 1.123-1.906 2.131-2.174.192.6-.326 1.258-.576 1.848.758-.274 1.9-.926 2.5-.12a3.363 3.363 0 0 0-1.829 1.267 4.466 4.466 0 0 1 2.107.01 11.34 11.34 0 0 0-1.834 1.555 1 1 0 0 0 1.094 0c.139.648-3 1.91-3.768 1.838a6.388 6.388 0 0 1-.283 1.166l-.562 1.19a.241.241 0 0 1 .144.206c0 .187-.192.322-.446.432l-.475 1c.13.139.274.269.384.4-.168-.01-.36-.029-.552-.043l-.326.682a1.938 1.938 0 0 0 .269.086c.082-.058.163-.125.25-.182a1.652 1.652 0 0 0 .015-.336 2 2 0 0 0 .139.211 12.088 12.088 0 0 1 1.161-.768 17.914 17.914 0 0 1 2.866-1.3 1.366 1.366 0 0 1 .878-1.421c-.029.134-.067.2-.086.336.355-.494.49-1.147.873-1.589a2.736 2.736 0 0 1 0 1.234c.384-.178 1.762-1.934 1.368-.1.974-.4 1.622-1.594 2.578-1.93a10.209 10.209 0 0 1-.662 1.8c.456-.221 1.114-1.118 1.618-1.166.667-.019.912.494.542 1.1a3.8 3.8 0 0 1 2.074.029c-.086.562-.946.562-1.349.854.322.24 1.858.178 1.858.672 0 .557-1.632.715-2.007.677a4.732 4.732 0 0 1 1.474 1.157 16.087 16.087 0 0 1-2.75-.35 2.635 2.635 0 0 1 .168.331 2.746 2.746 0 0 1-1.627-.581c-.6.85-1.224.49-1.186-.518a5.219 5.219 0 0 0-.465.835 1.561 1.561 0 0 1-.8-1.258 8.637 8.637 0 0 0-.854 1.19c-.13-.3-.341-.744-.461-.989-.1.312-.331.624-.4.936a1.091 1.091 0 0 1-.413-1.027 4.346 4.346 0 0 0-.446 1.344l.091-1.373a18.275 18.275 0 0 0-2.553 1.6 9.9 9.9 0 0 0-.9.763c.571.3 1.262.374 1.848.624a4.423 4.423 0 0 1-.715.264 16.054 16.054 0 0 1 1.627.37c.168 0 .336-.024.475-.024-.394-.312-.9-.744-.485-1.171.571.725 2.885.926 1.863-.259.979.533 1.944 1.32 1.622-.413a3.385 3.385 0 0 0 2.006.48c-.077-.278.043-.384.038-.542.562.293 1.944 1.147 2.016.082.7-.082 1.248.365 1.91.461 0-.182.048-.408.029-.566a1.413 1.413 0 0 0 2.664 0 4.8 4.8 0 0 0 .038.566c.662-.1 1.2-.542 1.906-.461.062 1.066 1.45.211 2.021-.082-.014.158.11.264.038.542a3.385 3.385 0 0 0 2.006-.48c-.312 1.733.638.946 1.632.413-1.042 1.186 1.282.984 1.853.259.413.427-.1.859-.49 1.171.144 0 .3.024.465.024a6.781 6.781 0 0 1 2.021-.379 2.715 2.715 0 0 1-1.186.422c.288.043.566.062.859.115a13.684 13.684 0 0 1 2.174.49c.086.019.158.072.235.091a1.947 1.947 0 0 1 .2-.293 5.977 5.977 0 0 0-.8-.994 15.725 15.725 0 0 0-1.622-1.474 18.909 18.909 0 0 0-2.558-1.6l.082 1.373a4.338 4.338 0 0 0-.441-1.344 1.127 1.127 0 0 1-.418 1.027c-.067-.312-.312-.624-.394-.936-.125.245-.327.691-.451.989a8.77 8.77 0 0 0-.879-1.19 1.515 1.515 0 0 1-.792 1.258 5.224 5.224 0 0 0-.461-.835c.029 1.008-.6 1.368-1.2.518a2.687 2.687 0 0 1-1.622.581 3.6 3.6 0 0 1 .168-.331 16.087 16.087 0 0 1-2.75.35 4.884 4.884 0 0 1 1.469-1.157c-.365.038-1.992-.12-1.992-.677 0-.494 1.526-.432 1.848-.672-.4-.293-1.248-.293-1.349-.854a3.819 3.819 0 0 1 2.078-.029c-.365-.6-.13-1.118.538-1.1.5.048 1.161.946 1.613 1.166a10.173 10.173 0 0 1-.658-1.8c.974.336 1.613 1.526 2.578 1.93-.384-1.838.994-.082 1.377.1a2.614 2.614 0 0 1 0-1.234c.375.442.509 1.094.859 1.589a1.718 1.718 0 0 0-.082-.336 1.346 1.346 0 0 1 .874 1.421 18.262 18.262 0 0 1 2.88 1.3 15.176 15.176 0 0 1 1.9 1.339c.058.043.106.12.149.134l-2.05-4.354a6.8 6.8 0 0 1-.293-1.166c-.758.072-3.9-1.19-3.758-1.838a.985.985 0 0 0 1.085 0 10.6 10.6 0 0 0-1.839-1.555 4.488 4.488 0 0 1 2.112-.01 3.388 3.388 0 0 0-1.81-1.267c.581-.806 1.728-.154 2.486.12-.245-.59-.773-1.243-.576-1.848 1.013.269 1.589 1.354 2.131 2.174a15.4 15.4 0 0 0 .177-1.906c.038.653.072 2.635.667 3.192a6.148 6.148 0 0 0 .408-1.392 2.536 2.536 0 0 0 .941 1.306c-.024-.379-.048-.749-.048-1.152.509.461.854 1.171 1.31 1.642a9.06 9.06 0 0 0-.365-2.578c.47.067.744.49.974.888a8.513 8.513 0 0 1 .47-3.206c-.048 1.056.394 2.107.384 3.235a4.913 4.913 0 0 0 .384-1.392 16.227 16.227 0 0 1-.278 3.072 1.62 1.62 0 0 0 .475-.557 6.262 6.262 0 0 0-.254 2.669 3.632 3.632 0 0 0 .341-.446 8.608 8.608 0 0 1-.154 1.411c.1-.13.322-.293.446-.446.091.677-.365 1.3-.221 1.925.331-.581.672-1.147 1.042-1.68.235-.36.5-.672.744-1-.158-.926-.3-2.266.1-2.76a7.392 7.392 0 0 1 .744.754c.494-1.123.288-3.072 1.382-1.123a20.513 20.513 0 0 0 .5-2.131 5.093 5.093 0 0 1 .187 2.006c.49-.029.816-.432 1.238-.653a10.163 10.163 0 0 1-.883 1.771c.168-.091.509-.13.677-.226-.216.49-3.946 2.986-4.44 3.518a5.954 5.954 0 0 0-.768 1.483.671.671 0 0 0 .35-.182 2.522 2.522 0 0 1-.73 1.349 4.7 4.7 0 0 0-1.042 2.846c.61-.374 1.248-.754 1.848-1.09.7-.4 1.387-.864 2.04-1.277a1.38 1.38 0 0 0 .283-1.33c.816 1.19 1.584.091 1.622-.874 1.013 1.253 1.882-1.037 1.882-1.862a3.014 3.014 0 0 1 1.166 1.728 2.833 2.833 0 0 0 1.152-2.222c.456.533-.009 2.222.413 2.5.562.379 1.512-.907 1.762-1.128-.168.523-.494 1.008-.634 1.526.533.216 1.022-.163 1.526-.269-.154.36-1.061.854-1.061 1.166 0 .629 1.09.71 1.545.677-.2.758-1.281.35-1.91.576a1.857 1.857 0 0 1 .754.634c-1.2.11-2.319-.494-3.466-.542a4.083 4.083 0 0 1 .178.451c-.672-.154-.96-.83-1.339-1.344-.6.336-.6.912-1.07 1.382-.811.835-.168.25-1.008.029-.471-.11-.2-.72-.763-.067a1.827 1.827 0 0 0-.153 1.147 8.59 8.59 0 0 0-.639-.926c-.417.211-.821.432-1.214.653-.739.408-1.44.845-2.146 1.277-.067.053-.13.091-.2.139a2.277 2.277 0 0 1 .225.355l.677.091c.811.158 1.632.3 2.438.47a18.73 18.73 0 0 1 2.39.653c.158.048.288.115.437.163l.293-.293a4.815 4.815 0 0 0 .8-1.421c0 .163.077.456.077.648a4.962 4.962 0 0 0 1.709-1.238 14.534 14.534 0 0 0-.259 1.891 1.773 1.773 0 0 0 1.032-.734 3.313 3.313 0 0 1-.619 1.166 13.665 13.665 0 0 0 2.362-.115 3.527 3.527 0 0 1-1.512 1.757 3.892 3.892 0 0 0 1.7 1.21c-1.253.158-2.6-.341-3.85-.115-.206-.226-.509-.355-.648-.648-.59.394-.826 1.21-1.152 1.752-.077-1.013.12-2.851-.216-3.571l.1-.086a1.507 1.507 0 0 0-.327-.1c-.792-.154-1.594-.288-2.4-.365-.826-.058-1.618-.13-2.438-.154l-.374-.019c.029 1.234-.806 2.448-1.09 3.586-.216.9-.326 1.752-.6 2.582-.662 7.6-1.248 17.078-1.742 26.645 7.584-.211 15.864-.418 23.616-.6.571-4.43 1.157-8.654 1.723-12.269a15.467 15.467 0 0 1-.24-2.347 6.862 6.862 0 0 1 .144-2.174 6.478 6.478 0 0 0-1.094-.552 4.786 4.786 0 0 1-.259.9c-.206-.7-.807-.533-.8.163a2.067 2.067 0 0 0-.336-.528 1.293 1.293 0 0 0-.518.917c-.446-.182-.389-.773-.638-1.152a2.862 2.862 0 0 0-1.147.816 3.324 3.324 0 0 1-.029-1.07c-.509.182-.936.763-1.378 1.128a10.073 10.073 0 0 1 .139-1.224 7.706 7.706 0 0 0-1.834 1.171 8.369 8.369 0 0 0 .211-1.258 7.449 7.449 0 0 0-1.459 1.09 11.533 11.533 0 0 1 .456-1.421 3.273 3.273 0 0 1-1.814.821c.173-.437.562-.734.73-1.186a7.124 7.124 0 0 1-1.886.144c.3-.418.926-.547 1.349-.754a5.711 5.711 0 0 1-1.574-.509c.687-.24 1.541-.144 2.026-.864a3.084 3.084 0 0 0 0 .422c.509-.029.936-.336 1.474-.235 0 .8 1.075.221 1.536.024-.029.125.063.216-.01.418a2.537 2.537 0 0 0 1.541-.254c-.322 1.3.446.749 1.219.394-.845.845.926.811 1.392.293.3.35-.11.643-.432.864.115 0 .235.034.36.038a5.312 5.312 0 0 1 1.555-.187 1.983 1.983 0 0 1-.926.269c.221.043.422.077.653.12a12.229 12.229 0 0 1 1.613.494c.067.019.12.053.182.077a.819.819 0 0 1 .158-.206 4.351 4.351 0 0 0-.557-.792 11 11 0 0 0-1.185-1.233 14.4 14.4 0 0 0-1.862-1.334v1.046a3.013 3.013 0 0 0-.274-1.046.835.835 0 0 1-.365.763c-.038-.25-.2-.494-.254-.734-.1.178-.283.514-.394.72a5.776 5.776 0 0 0-.59-.941 1.139 1.139 0 0 1-.677.9 6.248 6.248 0 0 0-.3-.648c-.029.773-.523 1-.931.331a1.964 1.964 0 0 1-1.263.355 1.9 1.9 0 0 1 .149-.25 11.89 11.89 0 0 1-2.112.134 3.675 3.675 0 0 1 1.176-.806c-.274.019-1.5-.182-1.474-.614.029-.37 1.171-.25 1.435-.418-.293-.235-.941-.288-.979-.72a3.061 3.061 0 0 1 1.579.1c-.254-.48-.038-.854.465-.8.379.058.816.768 1.157.97a7.52 7.52 0 0 1-.4-1.4c.72.307 1.133 1.243 1.848 1.6-.192-1.416.758-.014 1.037.139a2.026 2.026 0 0 1 .067-.936c.269.36.331.859.566 1.253a1.264 1.264 0 0 0-.043-.264 1.039 1.039 0 0 1 .6 1.123 15.735 15.735 0 0 1 2.117 1.133 12.2 12.2 0 0 1 1.368 1.118 1.124 1.124 0 0 0 .1.106l-1.32-3.4a3.909 3.909 0 0 1-.158-.9c-.59.014-2.909-1.1-2.765-1.589a.767.767 0 0 0 .826.053 7.967 7.967 0 0 0-1.315-1.262 3.288 3.288 0 0 1 1.6.091 2.59 2.59 0 0 0-1.315-1.056c.5-.571 1.334-.029 1.891.221-.158-.456-.514-.974-.341-1.426.754.254 1.128 1.1 1.5 1.766a14.134 14.134 0 0 0 .235-1.445c-.01.5-.082 1.992.336 2.443a4.512 4.512 0 0 0 .389-1.022 1.792 1.792 0 0 0 .648 1.032 7.385 7.385 0 0 1 .014-.864c.37.365.585.926.912 1.3a7.339 7.339 0 0 0-.144-1.973c.355.072.547.408.7.73a6.05 6.05 0 0 1 .523-2.4c-.1.8.178 1.613.115 2.462a3.832 3.832 0 0 0 .374-1.032 13.253 13.253 0 0 1-.374 2.323 1.572 1.572 0 0 0 .394-.4 4.885 4.885 0 0 0-.35 2.006 2.311 2.311 0 0 0 .3-.312 7.618 7.618 0 0 1-.192 1.051c.086-.091.264-.2.36-.312.034.509-.336.965-.264 1.445.269-.413.566-.83.869-1.219.2-.254.413-.485.614-.725-.067-.706-.106-1.733.221-2.088a6.213 6.213 0 0 1 .533.619c.432-.821.365-2.314 1.109-.778.211-.446.307-1.066.485-1.589a4.117 4.117 0 0 1 .038 1.522c.365 0 .638-.288.965-.427a8.493 8.493 0 0 1-.749 1.291c.12-.053.384-.067.514-.134-.187.365-3.139 2.059-3.542 2.453a4.2 4.2 0 0 0-.657 1.075.657.657 0 0 0 .274-.115 1.913 1.913 0 0 1-.619.979 3.6 3.6 0 0 0-.936 2.107c.48-.254.979-.518 1.454-.744.552-.264 1.085-.571 1.618-.859a1.045 1.045 0 0 0 .274-.989c.562.941 1.2.154 1.286-.581.691 1.013 1.469-.677 1.512-1.306a2.279 2.279 0 0 1 .792 1.368 2.18 2.18 0 0 0 .994-1.632c.312.432-.12 1.685.178 1.915.413.312 1.19-.61 1.387-.768-.149.384-.418.744-.552 1.128.394.206.787-.067 1.171-.125-.125.259-.85.586-.869.826-.019.48.806.6 1.147.6-.192.566-.989.206-1.488.341a1.434 1.434 0 0 1 .552.518 18.809 18.809 0 0 1-2.606-.586c.038.1.086.25.115.35-.5-.154-.691-.682-.95-1.1-.465.226-.514.667-.878 1.013-.653.576-.139.168-.777-.038-.336-.115-.1-.562-.562-.1a1.347 1.347 0 0 0-.178.859 6.639 6.639 0 0 0-.441-.725c-.317.125-.643.278-.955.427-.571.264-1.137.576-1.68.859a1.866 1.866 0 0 1-.163.091 1.2 1.2 0 0 1 .149.283l.514.1c.61.163 1.219.307 1.819.49a14.055 14.055 0 0 1 1.79.61c.11.043.216.106.322.144l.235-.206a4.057 4.057 0 0 0 .677-1.027c-.015.115.029.341.024.49a3.928 3.928 0 0 0 1.358-.84 8.952 8.952 0 0 0-.293 1.416 1.374 1.374 0 0 0 .816-.509 2.565 2.565 0 0 1-.523.85 10.674 10.674 0 0 0 1.791.038 2.781 2.781 0 0 1-1.253 1.238 2.819 2.819 0 0 0 1.229 1c-.965.053-1.944-.389-2.918-.278-.139-.182-.37-.3-.451-.528-.466.274-.691.874-.965 1.262a11.394 11.394 0 0 0 .019-2.707l.077-.067a1.626 1.626 0 0 0-.245-.091 17.025 17.025 0 0 0-1.8-.389c-.619-.091-1.224-.182-1.833-.245l-.288-.034a10.559 10.559 0 0 1-1.013 2.659c-.211.672-.346 1.31-.581 1.93-.562 3.514-1.123 7.6-1.675 11.89 9.706-.23 18.451-.427 23.741-.542-.485-9.158-1.042-18.182-1.68-25.469-.278-.83-.384-1.68-.6-2.582-.3-1.138-1.133-2.352-1.1-3.586l-.374.019c-.816.024-1.613.1-2.434.154-.811.077-1.608.211-2.414.365a1.7 1.7 0 0 0-.317.1l.106.086c-.341.72-.149 2.558-.216 3.571-.322-.542-.576-1.358-1.157-1.752-.13.293-.442.422-.657.648-1.243-.226-2.587.274-3.84.115a3.922 3.922 0 0 0 1.709-1.21 3.489 3.489 0 0 1-1.517-1.757 13.6 13.6 0 0 0 2.352.115 3.223 3.223 0 0 1-.614-1.166 1.758 1.758 0 0 0 1.032.734 14.492 14.492 0 0 0-.254-1.891 4.836 4.836 0 0 0 1.7 1.238c0-.192.077-.485.077-.648a4.828 4.828 0 0 0 .8 1.421l.293.293c.144-.048.278-.115.442-.163a18.964 18.964 0 0 1 2.39-.653c.806-.168 1.627-.312 2.443-.47l.667-.091a2.268 2.268 0 0 1 .235-.355 1.738 1.738 0 0 1-.207-.139c-.7-.432-1.406-.869-2.136-1.277-.4-.221-.806-.442-1.219-.653a7.94 7.94 0 0 0-.638.926 1.828 1.828 0 0 0-.158-1.147c-.562-.653-.293-.043-.754.067-.854.221-.2.806-1.027-.029-.451-.47-.47-1.046-1.061-1.382-.384.514-.667 1.19-1.349 1.344.058-.134.13-.307.2-.451-1.161.048-2.28.653-3.47.542a1.755 1.755 0 0 1 .749-.634c-.629-.226-1.714.182-1.915-.576.456.034 1.55-.048 1.56-.677 0-.312-.922-.806-1.07-1.166.514.106 1 .485 1.531.269-.144-.518-.461-1-.629-1.526.25.221 1.186 1.507 1.742 1.128.432-.274-.029-1.963.422-2.5a2.852 2.852 0 0 0 1.157 2.222 3.06 3.06 0 0 1 1.166-1.728c0 .826.864 3.115 1.867 1.862.057.965.806 2.064 1.632.874a1.4 1.4 0 0 0 .288 1.33c.658.413 1.344.874 2.035 1.277.6.336 1.229.715 1.858 1.09a4.738 4.738 0 0 0-1.056-2.846 2.484 2.484 0 0 1-.725-1.349.714.714 0 0 0 .345.182 5.933 5.933 0 0 0-.758-1.483c-.494-.533-4.229-3.029-4.445-3.518.168.1.5.134.672.226a11.234 11.234 0 0 1-.874-1.771c.418.221.754.624 1.234.653a5.271 5.271 0 0 1 .187-2.006 18.286 18.286 0 0 0 .5 2.131c1.1-1.949.878 0 1.378 1.123a8.012 8.012 0 0 1 .759-.754c.384.494.259 1.834.1 2.76.245.331.5.643.739 1 .374.533.72 1.1 1.046 1.68.134-.624-.317-1.248-.221-1.925.12.154.345.317.446.446a7.663 7.663 0 0 1-.158-1.411 3.61 3.61 0 0 0 .35.446 6.275 6.275 0 0 0-.274-2.669 1.741 1.741 0 0 0 .485.557 16.207 16.207 0 0 1-.278-3.072 4.627 4.627 0 0 0 .394 1.392c-.01-1.128.427-2.179.365-3.235a8.526 8.526 0 0 1 .49 3.206c.216-.4.49-.821.96-.888a9.807 9.807 0 0 0-.36 2.578c.461-.47.8-1.181 1.311-1.642a10.03 10.03 0 0 1-.058 1.152 2.5 2.5 0 0 0 .95-1.306 5.715 5.715 0 0 0 .413 1.392c.6-.557.624-2.539.662-3.192a18.762 18.762 0 0 0 .178 1.906c.538-.821 1.128-1.906 2.131-2.174.192.6-.322 1.258-.576 1.848.763-.274 1.9-.926 2.5-.12a3.374 3.374 0 0 0-1.819 1.267 4.487 4.487 0 0 1 2.112.01 10.606 10.606 0 0 0-1.838 1.555 1 1 0 0 0 1.094 0c.144.648-3 1.91-3.768 1.838a5.682 5.682 0 0 1-.288 1.166l-2.054 4.354c.048-.014.1-.091.139-.134a16.122 16.122 0 0 1 1.916-1.338 18.313 18.313 0 0 1 2.866-1.3 1.37 1.37 0 0 1 .883-1.421 2.179 2.179 0 0 0-.087.336c.355-.494.485-1.147.869-1.589a2.607 2.607 0 0 1 0 1.234c.384-.178 1.767-1.934 1.363-.1.979-.4 1.622-1.594 2.587-1.93a10.592 10.592 0 0 1-.662 1.8c.466-.221 1.109-1.118 1.618-1.166.658-.019.912.494.538 1.1a3.783 3.783 0 0 1 2.069.029c-.082.562-.936.562-1.349.854.327.24 1.862.178 1.862.672 0 .557-1.627.715-2 .677a4.71 4.71 0 0 1 1.469 1.157 16.215 16.215 0 0 1-2.746-.35 3.51 3.51 0 0 1 .168.331 2.722 2.722 0 0 1-1.627-.581c-.6.85-1.219.49-1.2-.518a5.6 5.6 0 0 0-.456.835 1.55 1.55 0 0 1-.8-1.258 9.553 9.553 0 0 0-.864 1.19c-.125-.3-.336-.744-.451-.989-.1.312-.327.624-.4.936a1.119 1.119 0 0 1-.422-1.027 4.6 4.6 0 0 0-.437 1.344l.091-1.373a18.371 18.371 0 0 0-2.563 1.6 15.225 15.225 0 0 0-1.623 1.474 6.552 6.552 0 0 0-.8.994.979.979 0 0 1 .187.293c.087-.019.158-.072.235-.091a14.048 14.048 0 0 1 2.174-.49c.3-.053.576-.072.874-.115a2.8 2.8 0 0 1-1.191-.422 6.694 6.694 0 0 1 2.016.379c.168 0 .331-.024.475-.024-.4-.312-.907-.744-.495-1.171.581.725 2.894.926 1.863-.259.984.533 1.944 1.32 1.632-.413a3.36 3.36 0 0 0 2.006.48c-.072-.278.038-.384.029-.542.581.293 1.949 1.147 2.026.082.71-.082 1.243.365 1.906.461a3.84 3.84 0 0 0 .024-.566c.581.989 1.709.941 2.587 1.32a7.077 7.077 0 0 1-2.1.518c.513.317 1.339.538 1.694 1.123a8.886 8.886 0 0 1-2.463-.36c.178.6.658 1.037.85 1.622a4.272 4.272 0 0 1-2.3-1.238 14.6 14.6 0 0 1 .456 1.906 9.437 9.437 0 0 0-1.81-1.57 11.281 11.281 0 0 0 .168 1.68 10.366 10.366 0 0 0-2.309-1.7 14.737 14.737 0 0 1 .067 1.613c-.533-.518-1.061-1.33-1.7-1.613a4.325 4.325 0 0 1-.134 1.416 3.71 3.71 0 0 0-1.44-1.171c-.36.466-.331 1.253-.941 1.454a1.665 1.665 0 0 0-.6-1.253c-.144.206-.389.384-.47.648.062-.888-.706-1.166-1.051-.264a5.452 5.452 0 0 1-.254-1.219 8.774 8.774 0 0 0-1.488.634 9.2 9.2 0 0 1-.009 2.88 19.824 19.824 0 0 1-.528 3.048c.648 7.354 1.219 16.5 1.714 25.79 2.362-.053 3.725-.082 3.725-.082v-3.2h7.253c-.192-2.914-.394-5.693-.614-8.179-.206-.634-.293-1.282-.461-1.968a11.063 11.063 0 0 1-.835-2.726l-.274.019c-.624.014-1.224.062-1.853.115a17.763 17.763 0 0 0-1.824.274 1.075 1.075 0 0 0-.25.077l.082.062a10.962 10.962 0 0 0-.168 2.712 3.735 3.735 0 0 0-.878-1.334c-.1.23-.327.331-.49.5-.955-.168-1.968.2-2.933.082a2.971 2.971 0 0 0 1.306-.926 2.573 2.573 0 0 1-1.152-1.325 9.983 9.983 0 0 0 1.786.091 2.618 2.618 0 0 1-.466-.883 1.379 1.379 0 0 0 .778.557 8.136 8.136 0 0 0-.192-1.435c.259.432.873.667 1.3.936 0-.154.058-.37.058-.49a3.937 3.937 0 0 0 .609 1.08l.216.211c.11-.029.216-.077.336-.115a13.743 13.743 0 0 1 1.819-.494c.615-.139 1.234-.24 1.853-.355l.509-.072a1.869 1.869 0 0 1 .182-.269l-.158-.106c-.533-.326-1.066-.662-1.627-.979-.3-.168-.61-.336-.917-.49a5.6 5.6 0 0 0-.49.7 1.423 1.423 0 0 0-.12-.874c-.432-.494-.221-.024-.571.053-.653.168-.158.61-.778-.014-.345-.355-.355-.806-.811-1.051-.288.389-.514.9-1.018 1.013.038-.1.091-.23.144-.336a18.45 18.45 0 0 1-2.64.408 1.411 1.411 0 0 1 .571-.475c-.471-.168-1.306.13-1.455-.442.341.034 1.176-.038 1.186-.509 0-.24-.7-.619-.806-.893.384.086.754.379 1.152.2-.1-.389-.346-.763-.466-1.157.178.168.9 1.147 1.325.85.317-.2-.024-1.474.312-1.886a2.182 2.182 0 0 0 .874 1.685 2.373 2.373 0 0 1 .893-1.315c0 .643.653 2.371 1.421 1.421.038.73.619 1.565 1.238.667a1.02 1.02 0 0 0 .211 1c.514.326 1.027.667 1.551.974.456.259.941.547 1.406.835a3.6 3.6 0 0 0-.8-2.165 1.947 1.947 0 0 1-.542-1.022.665.665 0 0 0 .264.139 5.052 5.052 0 0 0-.581-1.133c-.379-.4-3.216-2.294-3.374-2.669.12.062.384.1.5.163a8.134 8.134 0 0 1-.667-1.344c.322.173.571.475.95.49a3.615 3.615 0 0 1 .14-1.507 13.257 13.257 0 0 0 .374 1.618c.826-1.488.672 0 1.051.854a4.406 4.406 0 0 1 .571-.586 3.43 3.43 0 0 1 .072 2.1c.192.259.384.494.566.768.278.413.542.835.787 1.272.11-.47-.245-.946-.168-1.454.091.11.264.235.346.336a6.008 6.008 0 0 1-.125-1.08 3.348 3.348 0 0 0 .264.35 4.669 4.669 0 0 0-.206-2.03 1.634 1.634 0 0 0 .365.427 12.542 12.542 0 0 1-.211-2.338 3.5 3.5 0 0 0 .3 1.051c-.014-.85.322-1.646.278-2.453a6.407 6.407 0 0 1 .365 2.438c.178-.3.379-.634.739-.672a7.4 7.4 0 0 0-.274 1.954c.35-.355.6-.9.984-1.248a8.447 8.447 0 0 1-.034.869c.35-.154.542-.614.715-.984a4.535 4.535 0 0 0 .317 1.051c.451-.418.475-1.92.5-2.414a11.117 11.117 0 0 0 .139 1.445c.4-.634.854-1.445 1.622-1.656.139.461-.254.955-.442 1.4.571-.2 1.445-.7 1.9-.082a2.5 2.5 0 0 0-1.378.95 3.479 3.479 0 0 1 1.6.019 8.309 8.309 0 0 0-1.395 1.167.752.752 0 0 0 .835 0c.105.5-2.285 1.454-2.861 1.4a5.008 5.008 0 0 1-.226.888l-1.555 3.307a.513.513 0 0 0 .11-.1 11.915 11.915 0 0 1 1.445-1.027 15.838 15.838 0 0 1 2.184-.979 1.044 1.044 0 0 1 .667-1.085 1.068 1.068 0 0 0-.062.259c.269-.374.37-.874.662-1.21a2.121 2.121 0 0 1 0 .936c.278-.144 1.33-1.469 1.042-.062.739-.317 1.219-1.21 1.949-1.474a7.911 7.911 0 0 1-.494 1.368c.355-.168.84-.85 1.224-.883.5-.029.7.379.413.83a2.957 2.957 0 0 1 1.584.014c-.082.427-.72.427-1.032.653.245.187 1.406.134 1.406.514 0 .422-1.234.538-1.526.509a3.411 3.411 0 0 1 1.123.888 12.307 12.307 0 0 1-2.083-.278c.043.072.082.178.13.264a2 2 0 0 1-1.238-.451c-.451.653-.931.379-.912-.394a4.148 4.148 0 0 0-.336.634 1.136 1.136 0 0 1-.61-.96 6.169 6.169 0 0 0-.658.907c-.105-.216-.259-.562-.346-.744-.067.235-.254.475-.3.71a.8.8 0 0 1-.312-.782 3.048 3.048 0 0 0-.346 1.018l.067-1.037a13.307 13.307 0 0 0-1.939 1.21 10.643 10.643 0 0 0-1.238 1.128 4.446 4.446 0 0 0-.609.749.992.992 0 0 1 .149.221c.058-.014.115-.048.178-.067a11.2 11.2 0 0 1 1.651-.37c.225-.043.441-.053.657-.1a1.911 1.911 0 0 1-.9-.317 5.636 5.636 0 0 1 1.541.288c.125 0 .24-.014.355-.014-.3-.24-.7-.562-.374-.883.432.542 2.194.7 1.406-.211.758.413 1.488 1 1.238-.3a2.593 2.593 0 0 0 1.526.355c-.058-.206.038-.288.029-.4.442.216 1.478.864 1.536.062.533-.062.941.278 1.445.341a3.368 3.368 0 0 0 .029-.427c.432.754 1.3.71 1.963 1.018a6.588 6.588 0 0 1-1.6.389c.394.235 1.013.4 1.281.845a7.092 7.092 0 0 1-1.872-.274c.139.456.5.782.653 1.224a3.14 3.14 0 0 1-1.752-.931 14.79 14.79 0 0 1 .36 1.445 7.46 7.46 0 0 0-1.387-1.19 8.428 8.428 0 0 0 .13 1.277 7.973 7.973 0 0 0-1.747-1.291 10.28 10.28 0 0 1 .043 1.224c-.408-.389-.792-1-1.286-1.224a3.165 3.165 0 0 1-.106 1.07 2.921 2.921 0 0 0-1.094-.888c-.274.37-.254.955-.715 1.109a1.264 1.264 0 0 0-.456-.95c-.105.154-.293.283-.37.494.058-.682-.518-.883-.787-.211a4.682 4.682 0 0 1-.2-.922 7.82 7.82 0 0 0-1.123.48 6.762 6.762 0 0 1-.01 2.179 15.933 15.933 0 0 1-.4 2.328c.23 2.563.446 5.438.653 8.453h4.781v-6h13.286v-6.269h16.848v-16.07h7.546v-4.536a8.05 8.05 0 1 1 16.1 0v4.536h4.7v-63.97h18.653v-7.992h2.77v-26.934h2.616v-11.669h3.019v38.6h11.463v3.149h16.3v8.3h9.619v-8.952h15.494v57.2h.4v14l6.7-1.277-.187-19.824H733.4c12.97-12.83 25.733-5.472 32.17 0h12.374v15.9h7.2v11.9h4.8v4.891h5.4v-11.6h34.4v-32.578l15.6-5.2 14.8 5.2v44.189h5.338v-9.494h15.365V242h8v19.354h18.1V242l18.312 2.314v9.048h12.191v-5.9l12.61 2.491c-.024-7.186-.048-21.278-.048-21.278h-2.462v-4.858l2.534-.1v-30.846s.754-9.71-3.259-11.582V175.9h4.229v-5.275l-2.107-2.813h2.107s-1.555-5.266 2.683-6.557 4.786-8.554 4.786-8.554.562 7.262 4.8 8.554 2.674 6.557 2.674 6.557h2.103l-2.112 2.813v5.275h4.229v5.39c-4 1.872-3.259 11.582-3.259 11.582v30.845l2.539.1v4.858h-2.467s-.014 2.894-.029 7.051h1.642c.134-3.278 1.344-7.094 5.635-9.269 7.531-3.816 7.949-8.842 7.934-10.046-.014 1.2.4 6.23 7.93 10.046a9.769 9.769 0 0 1 5.3 6.725v-12.4l-1.622-2.194h1.622v-7.032l-1.157-1.229h1.157s-.955-2.107.854-2.813 1.622-2.894 1.622-2.894h.01s-.187 2.194 1.622 2.894.859 2.813.859 2.813h1.157l-1.157 1.229v7.032h1.622l-1.368 2.112v6.5h3.182c-.749-3.533-1.493-11.5 5.8-15.2 8.333-4.224 8.8-9.782 8.789-11.122-.014 1.339.456 6.9 8.789 11.122 7.3 3.7 6.552 11.669 5.8 15.2h3.177v-6.336l-1.363-2.275h1.622v-7.032l-1.157-1.229h1.157s-.955-2.107.859-2.813 1.618-2.894 1.618-2.894h.014s-.192 2.194 1.622 2.894.854 2.813.854 2.813h1.161l-1.161 1.229v7.032h1.622l-1.622 2.194v12.4a9.774 9.774 0 0 1 5.3-6.725c7.536-3.816 7.949-8.851 7.934-10.046-.014 1.2.4 6.23 7.934 10.046 4.291 2.174 5.5 5.99 5.635 9.269h1.642c-.014-4.157-.029-7.051-.029-7.051h-2.467v-4.858l2.534-.1v-30.847s.754-9.71-3.254-11.582V175.9h4.234v-5.275l-2.121-2.813h2.121s-1.56-5.266 2.669-6.557 4.8-8.554 4.8-8.554.557 7.262 4.791 8.554 2.674 6.557 2.674 6.557h2.117l-2.117 2.813v5.275h4.234v5.39c-4.013 1.872-3.254 11.582-3.254 11.582v30.845l2.53.1v4.858h-2.462s-.067 6.6-.067 17.448l.24.586 8.837-.662v3.4h8.309v-8.822h29.7v7.531h6.989v-25.924l14.808-6.1 14.592 6.1v21.917h4.344V232.1l11.976-17.482 12.326 17.482v12.26h3.706v-7.416l15.787 3.038v-52.977l27.643-3.571V252.8l9.173-1.574v-7.483h13.877v-34.264h5.227l1.44-2.813 9.946-8.472 11.03 8.472 1.459 2.813h5.054v22.267h10.469v-17.4h5.208l1.459-2.808h20.976l1.44 2.808h5.078v9.706h9.341v24.4h11.184v-8.126h24.912v-11.158h8.606l3.893-4.92 4.1 4.92h11.467V239.2l5.391 2.146h15.941v10.262h5.069v-61.656h2.429v-4.492l16.382 1.824v2.669h2.3v46.992h9.47v-21.452l20.99 3.154v30.513h3.293v11.986h11.846v3.922c18.648-3.187 37.858 2.789 53.942 3.307a184.927 184.927 0 0 0 22.642-.562 103.578 103.578 0 0 0 1.405-17.613c2.194-3.778 3.691-11.659 3.475-19.1s2.107-10.157 5.515-12.974 9.883-2.045 13.906-7.138 8.285-6.254 8.285-6.254c12.754-1.939 24.418-20.688 24.418-20.688 3.816-6.83 4.416.139 6.547 1.43s3.346 2.246 7.771 8.107-3.077 1.9-5.539 1.531-7.637-1.306-7.637-1.306c-4.944 11.045-14.1 20.381-18.1 24.134a1.906 1.906 0 0 0-.389 2.765 7.044 7.044 0 0 1 .806.749c1.872 2.093 2.1 5.486-.691 12.576-2.515 6.374-2.28 20.789-1.862 29.534 1.709-.2 3.432-.4 5.275-.614 36.734-4.2 90.466 6 125.866 5.4 2.525-.038 5.16-.106 7.867-.192.1-1.262.187-2.53.245-3.8.144-3.149.178-6.3.082-9.451 0-.13-.067-.917-.038-1.166a91.443 91.443 0 0 0-2.29-17.544 58.684 58.684 0 0 0-2.89-8.971 41.1 41.1 0 0 0-4.555-8.242 30.858 30.858 0 0 0-6.6-6.725 28.276 28.276 0 0 0-6.048-3.408 19.135 19.135 0 0 1-7.781 1.526c-6.581 0-11.914-2.808-11.914-6.269a4.124 4.124 0 0 1 1.349-2.894c-12.144-.571-21.557-4.536-21.557-9.35 0-5.2 11-9.418 24.552-9.418a55.378 55.378 0 0 1 13.91 1.656 3.819 3.819 0 0 1-.384-1.656c0-4.488 8.285-8.131 18.514-8.131 9.792 0 17.808 3.341 18.47 7.57a39.05 39.05 0 0 1 7.2-.643c8.568 0 15.768 2.578 17.837 6.077a28.292 28.292 0 0 1 7.843-1.07c9.422 0 17.059 4.291 17.059 9.581 0 4.968-6.739 9.053-15.37 9.533 1.872 1.32 2.976 2.942 2.976 4.694 0 4.445-7.1 8.05-15.859 8.05a30.1 30.1 0 0 1-4.6-.346c-.293.13-.6.264-.888.4a42.633 42.633 0 0 0-8.141 4.92 39.409 39.409 0 0 0-6.729 6.653 42 42 0 0 0-4.978 8.016 49.98 49.98 0 0 0-3.226 8.856 62.311 62.311 0 0 0-1.69 9.288c0 .077-.01 1.157 0 1.613 0 .912-.01 1.829-.043 2.741s-.077 1.824-.163 2.774c0 0-.082 4.1-.024 5 34.709-1.253 79.056-5.069 79.056-5.069v19.2h-1920v-37.79zm1823.938-37.541c-.259.01-.518.01-.778.01a32.719 32.719 0 0 1-10.752-1.7 50.65 50.65 0 0 1 6.715 6.629 54.856 54.856 0 0 1 6.13 8.981 64.441 64.441 0 0 1 4.454 10.162c-.283-2.4-.624-4.79-1.042-7.171a83.6 83.6 0 0 0-3.48-13.747c-.383-1.071-.796-2.127-1.247-3.164zm14.054 2.458c-.845 3.562-1.5 7.176-2.045 10.8q-.886 6-1.373 12.043 1.094-3.262 2.419-6.432a77.431 77.431 0 0 1 6.95-13.085c.216-.322.437-.643.653-.96a20.482 20.482 0 0 1-6.604-2.366zm-4.042 36.826a51.419 51.419 0 0 1 3.672-9.01 43.268 43.268 0 0 1 5.434-8.054 39.96 39.96 0 0 1 7.138-6.547 43.053 43.053 0 0 1 8.429-4.67c.139-.058.274-.11.418-.168-4.934-.874-8.76-2.947-10.114-5.534a28.969 28.969 0 0 1-3.619-.36c-.254.408-.509.816-.754 1.229a76.69 76.69 0 0 0-6.211 13.224 97.927 97.927 0 0 0-3.907 14.054c-.182.9-.346 1.79-.5 2.683-.014.35-.029.7-.038 1.042-.024.835-.043 1.675-.062 2.51.042-.135.071-.27.114-.399zm.571-26.27c.725-3.734 1.579-7.44 2.63-11.093a7.032 7.032 0 0 1-2.923-3.73 31.678 31.678 0 0 1-9.691 1.8c.475.955.912 1.93 1.325 2.909a85.127 85.127 0 0 1 4.224 13.728c.874 3.85 1.56 7.738 2.117 11.645.586-5.117 1.335-10.215 2.319-15.26zm-4.229 21.768a68.126 68.126 0 0 0-6.322-20.194 53.827 53.827 0 0 0-5.688-8.971 50.07 50.07 0 0 0-6.946-7.21 6.82 6.82 0 0 1-3.811 3.562 28.6 28.6 0 0 1 6.134 3.173 31.231 31.231 0 0 1 6.96 6.581 42.158 42.158 0 0 1 4.973 8.237 60.158 60.158 0 0 1 3.3 9.048c.576 2.059 1.061 4.142 1.474 6.24zm-142.853 22.31c-.686-6.072-1.858-10.843-1.368-17.707.667-9.322-2.717-10.027-6.888-9.974s-5.683 2.208-7.1 10.738c-.931 5.611 1.272 13.6 2.89 18.418 3.736-.448 7.864-.938 12.467-1.475zm-15.192 1.8a50.2 50.2 0 0 0-7.085-13.968c2.654-7.354.432-11.275.432-11.275-4.584 4.061-6.024 12.374-6.024 12.374-2.947 3.566-4.613 10.358-5.438 14.837 5.18-.466 10.935-1.124 18.116-1.973zm-1147.6-22.666c-.907.677-2.064 1.493-2.3 1.742a4.361 4.361 0 0 0-.581 1.133.85.85 0 0 0 .269-.139A1.938 1.938 0 0 1 460 246.8a3.6 3.6 0 0 0-.8 2.165c.466-.288.946-.576 1.406-.835.533-.307 1.046-.648 1.545-.974a1.037 1.037 0 0 0 .226-1c.418.61.806.413 1.037.01l-.247-3.121zm.384 4.958l-.029-.01c-.355-.077-.149-.547-.576-.053a1.425 1.425 0 0 0-.13.874 6.023 6.023 0 0 0-.475-.7c-.322.154-.629.322-.922.49-.566.317-1.1.653-1.632.979l-.154.106a2.383 2.383 0 0 1 .178.269l.509.072c.624.115 1.243.216 1.858.355a14.168 14.168 0 0 1 1.579.418c-.069-.952-.146-1.878-.208-2.808zm1.6-12.931l-.077.038a5.335 5.335 0 0 1 .077.547 3.631 3.631 0 0 1 .394.014c-.134-.205-.278-.412-.393-.604zm.806.168a2.193 2.193 0 0 0-.029-.528c-.187.077-.374.163-.552.254a1.145 1.145 0 0 0 .582.269zm-.168-1.291a4.615 4.615 0 0 1-.087-.6 1.807 1.807 0 0 0 .49.5c.317-.072.634-.13.955-.178.293-.053.576-.072.869-.115a2.8 2.8 0 0 1-1.2-.422 6.64 6.64 0 0 1 2.021.379c.168 0 .331-.024.48-.024-.4-.312-.917-.744-.5-1.171.528.662 2.549.883 2.035-.024l-.307.48a1.794 1.794 0 0 0-.159-1.147c-.566-.653-.293-.043-.749.067-.854.221-.211.806-1.027-.029a4.717 4.717 0 0 1-.576-.912c-.365.235-.725.485-1.066.739a13.625 13.625 0 0 0-1.627 1.474 6.607 6.607 0 0 0-.806.994 1.118 1.118 0 0 1 .2.293c.077-.019.149-.072.235-.091.273-.083.547-.151.821-.218zm-.691-2.544l-.509 1.075c.043-.014.1-.091.149-.134.5-.4 1.066-.8 1.622-1.166a6.3 6.3 0 0 0-1.262.22zm1.834-4.445c-.019.154-.058.317-.086.461a3.383 3.383 0 0 1 .3-.466 1.108 1.108 0 0 1-.213 0zm.355 3.72c.154-.077.322-.168.48-.245a1.229 1.229 0 0 0-.216-.149c-.095.116-.167.25-.263.389zm2.506-5.736a2.158 2.158 0 0 0-.187.178.775.775 0 0 0 .609.139c-.143-.106-.282-.221-.417-.322zm3.336 2.53c-.264-.293-1.5-1.171-2.611-1.987a7.876 7.876 0 0 1-2.842 1.358c.154.97.941 2.678 1.839 1.555a2.417 2.417 0 0 0 .13.61 1.118 1.118 0 0 1 .749-.725 2.122 2.122 0 0 0-.077.336c.346-.494.49-1.147.864-1.589a2.815 2.815 0 0 1 0 1.234c.384-.178 1.761-1.934 1.368-.1a2.751 2.751 0 0 0 .739-.47 1.582 1.582 0 0 0-.158-.227zm-2.2 4.723c.677.384 1.277.773 1.416.274-.375-.211-.754-.422-1.152-.619-.089.095-.18.22-.266.343zm3.9-1.2c-.13-.077-.245-.154-.365-.235-.6.85-1.224.49-1.185-.518a5.2 5.2 0 0 0-.461.835 1.592 1.592 0 0 1-.806-1.258 4.019 4.019 0 0 0-.581.787c.667.422 1.344.874 2.035 1.277.144.072.278.154.413.235.149.014.293.014.442.014-.077-.278.048-.384.038-.542.216.11.537.293.859.427a4.233 4.233 0 0 0-.389-1.032zm5.1 2.213c-.365.082-.749.144-1.133.2a7.77 7.77 0 0 0 .749.379c.187-.034.384-.077.581-.106.288-.053.571-.072.864-.115a2.6 2.6 0 0 1-1.063-.368zm12.691.053c-.278.058-.567.106-.85.144.245.144.552.274.85.432.3-.158.61-.288.864-.432q-.434-.068-.866-.154zm-6.878 35.491c2.184-.1 4.963-.2 8.146-.307-.278-4.718-.591-9.226-.927-13.075-.2-.634-.293-1.282-.451-1.968a10.853 10.853 0 0 1-.835-2.726l-.279.019c-.619.014-1.229.062-1.857.115a17.868 17.868 0 0 0-1.819.274 1.379 1.379 0 0 0-.254.077l.086.062a11.443 11.443 0 0 0-.168 2.712 3.8 3.8 0 0 0-.879-1.334c-.1.23-.331.331-.49.5-.96-.168-1.973.2-2.923.082a2.928 2.928 0 0 0 1.291-.926 2.585 2.585 0 0 1-1.147-1.325 10.035 10.035 0 0 0 1.79.091 2.653 2.653 0 0 1-.475-.883 1.441 1.441 0 0 0 .8.557 10.468 10.468 0 0 0-.206-1.435 3.926 3.926 0 0 0 1.3.936c0-.154.062-.37.062-.49a3.688 3.688 0 0 0 .6 1.08l.221.211c.11-.029.216-.077.336-.115a14.433 14.433 0 0 1 1.81-.494c.619-.139 1.238-.24 1.858-.355l.514-.072a1.533 1.533 0 0 1 .173-.269c-.048-.038-.105-.072-.154-.106-.533-.326-1.066-.662-1.632-.979-.3-.168-.6-.336-.917-.49a6.833 6.833 0 0 0-.49.7 1.329 1.329 0 0 0-.12-.874c-.427-.494-.216-.024-.571.053-.648.168-.149.61-.773-.014-.345-.355-.36-.806-.811-1.051-.283.389-.5.9-1.022 1.013.043-.1.091-.23.144-.336a18.422 18.422 0 0 1-2.63.408 1.463 1.463 0 0 1 .566-.475c-.47-.168-1.3.13-1.454-.442.355.034 1.176-.038 1.191-.509 0-.24-.706-.619-.816-.893.384.086.759.379 1.162.2-.105-.389-.345-.763-.475-1.157.187.168.9 1.147 1.33.85.322-.2-.029-1.474.307-1.886a2.167 2.167 0 0 0 .888 1.685 2.29 2.29 0 0 1 .883-1.315c0 .643.653 2.371 1.421 1.421.033.73.614 1.565 1.238.667a1.032 1.032 0 0 0 .216 1c.5.326 1.022.667 1.541.974.47.259.941.547 1.416.835a3.628 3.628 0 0 0-.8-2.165 1.9 1.9 0 0 1-.552-1.022.7.7 0 0 0 .264.139 4.822 4.822 0 0 0-.571-1.133c-.384-.4-3.221-2.294-3.384-2.669.13.062.384.1.513.163a7.794 7.794 0 0 1-.667-1.344c.317.173.567.475.941.49a3.694 3.694 0 0 1 .144-1.507 11.079 11.079 0 0 0 .379 1.618c.835-1.488.667 0 1.042.854a5.076 5.076 0 0 1 .571-.586 3.463 3.463 0 0 1 .077 2.1c.192.259.384.494.561.768.288.413.547.835.8 1.272.1-.47-.235-.946-.168-1.454.087.11.259.235.336.336a6.491 6.491 0 0 1-.12-1.08c.082.144.2.245.259.35a4.594 4.594 0 0 0-.2-2.03 1.4 1.4 0 0 0 .365.427 12.585 12.585 0 0 1-.216-2.338 3.971 3.971 0 0 0 .3 1.051c-.01-.85.322-1.646.283-2.453a6.6 6.6 0 0 1 .365 2.438c.168-.3.379-.634.739-.672a7.394 7.394 0 0 0-.283 1.954c.35-.355.61-.9 1-1.248 0 .312-.019.581-.043.869.346-.154.542-.614.72-.984a4.111 4.111 0 0 0 .307 1.051c.451-.418.48-1.92.509-2.414a14.23 14.23 0 0 0 .134 1.445c.4-.634.85-1.445 1.618-1.656.139.461-.254.955-.432 1.4.562-.2 1.435-.7 1.891-.082a2.55 2.55 0 0 0-1.382.95 3.476 3.476 0 0 1 1.6.019 8.241 8.241 0 0 0-1.4 1.171.737.737 0 0 0 .826 0c.115.5-2.275 1.454-2.856 1.4a5.007 5.007 0 0 1-.221.888l-1.565 3.307a.532.532 0 0 0 .12-.1 11.907 11.907 0 0 1 1.445-1.027 15.33 15.33 0 0 1 2.184-.979 1.041 1.041 0 0 1 .663-1.085c-.019.106-.043.158-.062.259a13.226 13.226 0 0 1 .662-1.21 2.123 2.123 0 0 1 0 .936c.283-.144 1.334-1.469 1.037-.062.739-.317 1.224-1.21 1.968-1.474a7.962 7.962 0 0 1-.509 1.368c.351-.168.845-.85 1.229-.883.5-.029.686.379.413.83a2.921 2.921 0 0 1 1.574.014c-.072.427-.715.427-1.032.653.25.187 1.406.134 1.406.514 0 .422-1.229.538-1.507.509a3.585 3.585 0 0 1 1.114.888 12.239 12.239 0 0 1-2.088-.278c.043.072.082.178.13.264a2.02 2.02 0 0 1-1.239-.451c-.456.653-.936.379-.9-.394a3.817 3.817 0 0 0-.355.634 1.128 1.128 0 0 1-.6-.96 6.962 6.962 0 0 0-.662.907c-.11-.216-.259-.562-.35-.744-.067.235-.25.475-.293.71a.826.826 0 0 1-.322-.782 3.535 3.535 0 0 0-.341 1.018l.067-1.037a14.164 14.164 0 0 0-1.944 1.21 11.957 11.957 0 0 0-1.238 1.128 4.117 4.117 0 0 0-.6.749c.053.067.087.139.144.221.058-.014.115-.048.178-.067a11.343 11.343 0 0 1 1.642-.37c.23-.043.446-.053.667-.1a1.927 1.927 0 0 1-.912-.317 5.5 5.5 0 0 1 1.541.288c.13 0 .24-.014.365-.014-.3-.24-.706-.562-.379-.883.427.542 2.2.7 1.411-.211.749.413 1.478 1 1.234-.3a2.608 2.608 0 0 0 1.531.355c-.062-.206.029-.288.024-.4.437.216 1.483.864 1.531.062.537-.062.945.278 1.445.341a2.712 2.712 0 0 0 .034-.427c.432.754 1.3.71 1.963 1.018a6.467 6.467 0 0 1-1.6.389c.4.235 1.027.4 1.3.845a6.949 6.949 0 0 1-1.872-.274c.125.456.49.782.638 1.224a3.155 3.155 0 0 1-1.752-.931 11.521 11.521 0 0 1 .355 1.445 7.59 7.59 0 0 0-1.382-1.19 7.329 7.329 0 0 0 .134 1.277 8 8 0 0 0-1.752-1.291 10.23 10.23 0 0 1 .043 1.224c-.408-.389-.8-1-1.291-1.224a3.052 3.052 0 0 1-.106 1.07 2.888 2.888 0 0 0-1.085-.888c-.274.37-.254.955-.725 1.109a1.266 1.266 0 0 0-.442-.95c-.11.154-.3.283-.365.494.048-.682-.533-.883-.8-.211a4.379 4.379 0 0 1-.2-.922 7.941 7.941 0 0 0-1.133.48 6.64 6.64 0 0 1 0 2.179 14.223 14.223 0 0 1-.4 2.328c.35 3.907.672 8.5.95 13.31 3.3-.106 6.984-.216 10.9-.326.49-9.72 1.085-19.354 1.776-27.038a19.858 19.858 0 0 1-.533-3.048 9.058 9.058 0 0 1 0-2.88 9.452 9.452 0 0 0-1.483-.634 5.49 5.49 0 0 1-.264 1.219c-.345-.9-1.1-.624-1.042.264-.087-.264-.336-.442-.475-.648a1.7 1.7 0 0 0-.6 1.253c-.6-.2-.591-.989-.936-1.454a3.759 3.759 0 0 0-1.445 1.171 4.454 4.454 0 0 1-.134-1.416c-.653.283-1.171 1.094-1.7 1.613a16.088 16.088 0 0 1 .062-1.613 9.861 9.861 0 0 0-2.294 1.7 12.005 12.005 0 0 0 .158-1.68 9.914 9.914 0 0 0-1.814 1.57 16.4 16.4 0 0 1 .466-1.906 4.345 4.345 0 0 1-2.294 1.238c.187-.586.662-1.018.84-1.622a7.2 7.2 0 0 1-.907.211c.048.058.1.1.139.149a7.637 7.637 0 0 1-.854-.053 7.459 7.459 0 0 1-.84.053c.034-.053.091-.091.13-.149a8.355 8.355 0 0 1-.907-.211c.178.6.663 1.037.85 1.622a4.276 4.276 0 0 1-2.294-1.238 16.331 16.331 0 0 1 .451 1.906 9.434 9.434 0 0 0-1.81-1.57 11.313 11.313 0 0 0 .163 1.68 10.021 10.021 0 0 0-2.3-1.7 14.767 14.767 0 0 1 .067 1.613c-.533-.518-1.051-1.33-1.709-1.613a4.079 4.079 0 0 1-.13 1.416 3.785 3.785 0 0 0-1.431-1.171c-.365.466-.341 1.253-.95 1.454a1.655 1.655 0 0 0-.585-1.253c-.144.206-.4.384-.495.648.077-.888-.691-1.166-1.027-.264a5.771 5.771 0 0 1-.264-1.219 8.114 8.114 0 0 0-1.119.451 3.749 3.749 0 0 1 .471.859 2.105 2.105 0 0 1-.768-.182 10.869 10.869 0 0 1-.086 2.386 17.746 17.746 0 0 1-.523 3.048c.706 7.915 1.315 17.9 1.838 27.907 2.355-.067 4.548-.129 6.396-.211zM467.967 245.9c.4.178.777-.115 1.161-.2-.12.274-.806.653-.806.893 0 .47.835.542 1.181.509-.154.571-.984.274-1.459.442a1.4 1.4 0 0 1 .576.475 18.408 18.408 0 0 1-2.645-.408l.149.336c-.509-.115-.734-.624-1.022-1.013a.2.2 0 0 0-.082.062c.082 1.037.163 2.1.235 3.178a3.565 3.565 0 0 0 1.253-.912 8.606 8.606 0 0 0-.192 1.435 1.363 1.363 0 0 0 .778-.557 2.468 2.468 0 0 1-.47.883 9.944 9.944 0 0 0 1.79-.091 2.573 2.573 0 0 1-1.152 1.325 2.971 2.971 0 0 0 1.306.926c-.955.12-1.973-.25-2.933-.082a.91.91 0 0 0-.192-.163c.341 5.155.653 10.675.936 16.19 4.109-.024 7.983-.067 11.41-.134-.5-9.888-1.1-19.747-1.786-27.6-.274-.83-.389-1.68-.59-2.582a25.313 25.313 0 0 1-1.08-3.149c-.187-.139-.374-.283-.552-.4a6.565 6.565 0 0 0-.677.038 4.85 4.85 0 0 1 .048 1.186c-.336-.326-.667-.768-1.027-1.123-.211.014-.418.029-.624.039l-.058.014a2.52 2.52 0 0 1-.13.874 3.313 3.313 0 0 0-.768-.763c-.312.038-.624.1-.936.154-.144.374-.274.768-.667.893a3.011 3.011 0 0 0-.11-.509 18.543 18.543 0 0 0-.173 3.456c-.326-.542-.571-1.358-1.161-1.752-.13.293-.437.422-.648.648a6.184 6.184 0 0 0-1.834.024 20.259 20.259 0 0 1-.47 2.606c.1 1.224.206 2.506.317 3.83a2.574 2.574 0 0 0 .173-.8 2.366 2.366 0 0 1 .888 1.315 2.139 2.139 0 0 0 .874-1.685c.336.413-.01 1.685.317 1.886.432.3 1.142-.682 1.329-.85-.122.389-.376.764-.477 1.156zm-3.144 23.237c-.322-6.2-.667-12.389-1.046-18.077-.557-.1-1.114-.2-1.67-.25-.614-.053-1.229-.1-1.853-.115l-.274-.019a11.058 11.058 0 0 1-.835 2.726c-.168.686-.254 1.334-.451 1.968-.355 4.046-.677 8.8-.965 13.786q3.643-.004 7.094-.023zm-50.688-33.767l-.168.768c.384-.24.816-.4 1.152-.6-.336-.048-.662-.101-.984-.168zm1.454-1.67a3.677 3.677 0 0 0 .034.552c.658-.086 1.2-.533 1.906-.446.067 1.061 1.445.2 2.016-.086-.01.154.11.269.038.533a4.23 4.23 0 0 0 1.33-.158 8.06 8.06 0 0 0-.1-1.416 1.369 1.369 0 0 1-.187-.312c.024 1.013-.6 1.382-1.2.518a2.6 2.6 0 0 1-1.618.586 2 2 0 0 1 .173-.336 16.25 16.25 0 0 1-2.76.36 4.762 4.762 0 0 1 1.474-1.171 4.483 4.483 0 0 1-1.464-.192 11.67 11.67 0 0 1-.854 2.458 2.009 2.009 0 0 0 1.212-.89zm2.794-5.443c-.413.2-.826.432-1.214.653-.749.408-1.454.85-2.146 1.282-.062.048-.139.086-.206.139a1.766 1.766 0 0 1 .225.35l.672.091c.235.048.47.091.7.134-.422-.226-1.128-.278-1.21-.782a3.878 3.878 0 0 1 2.069-.019c-.365-.6-.12-1.123.538-1.1.509.048 1.161.955 1.613 1.171-.115-.312-.274-.648-.408-.989a7.917 7.917 0 0 0-.633-.931zm8.875 2.006a6.072 6.072 0 0 1-.293-1.171 7.619 7.619 0 0 1-3.586-1.488c-.077 0-.154-.01-.216-.019.072.144.139.326.2.451-.686-.154-.965-.835-1.349-1.344-.6.336-.6.912-1.061 1.392-.816.826-.168.25-1.022.019-.461-.115-.187-.72-.749-.067a.848.848 0 0 0-.158.456c.83.432 1.45 1.445 2.328 1.814-.389-1.838.984-.086 1.373.086a2.7 2.7 0 0 1 0-1.238 4.765 4.765 0 0 1 .6 1.138 1.855 1.855 0 0 0 .542-.533 6.459 6.459 0 0 1-.12.754 1.259 1.259 0 0 1 .552.763 1.969 1.969 0 0 0 .336-.365 1.7 1.7 0 0 1-.269.648 1.339 1.339 0 0 1 .019.274c.192.072.374.149.571.23a4.421 4.421 0 0 0 1.435-.1 2.226 2.226 0 0 1-.278.6c.384.182.768.365 1.147.576a16.144 16.144 0 0 1 1.9 1.344 1.823 1.823 0 0 0 .149.139zm-5.669 4.426c.13.269.475.149.893-.086a1.164 1.164 0 0 1-.408-.442 2.038 2.038 0 0 0-.485.527zm1.382.1c.13.346.95.317 1.555.048a7.332 7.332 0 0 0-1.554-.053zm5.592.326a15.437 15.437 0 0 0-1.632-1.488c-.35-.259-.715-.5-1.09-.739a5.936 5.936 0 0 1-.984.835 3.935 3.935 0 0 0 1.718 1.21 6.469 6.469 0 0 1-1.363-.019 1.9 1.9 0 0 1-.624.715c.139 0 .3.019.466.019a7.066 7.066 0 0 1 2.016-.379 2.559 2.559 0 0 1-1.181.432c.283.038.571.062.859.106a15.79 15.79 0 0 1 2.174.494 2.314 2.314 0 0 0 .235.086 1.235 1.235 0 0 1 .2-.283 6.284 6.284 0 0 0-.793-.993zm1.258 22.786a2.133 2.133 0 0 0 .259.35l.226.221a2.9 2.9 0 0 1 .326-.12 14.4 14.4 0 0 1 1.819-.5c.615-.134 1.238-.235 1.858-.355l.514-.067a1.345 1.345 0 0 1 .173-.274c-.053-.038-.105-.062-.158-.106-.528-.322-1.066-.662-1.622-.97-.3-.168-.61-.341-.931-.494a5.337 5.337 0 0 0-.475.706 1.415 1.415 0 0 0-.125-.874c-.432-.494-.221-.038-.571.043-.648.178-.158.619-.778-.01a1.889 1.889 0 0 1-.321-.485c-.064.962-.131 1.942-.194 2.934zm4.8-3.629a1.929 1.929 0 0 1-.542-1.022.618.618 0 0 0 .264.144 4.886 4.886 0 0 0-.581-1.138c-.374-.4-3.2-2.285-3.374-2.669.134.067.384.106.514.173-.139-.3-.312-.562-.461-.84-.029.221-.033.446-.053.667-.086 1.123-.168 2.27-.245 3.427.245.274.547.35.869-.053.038.73.619 1.574 1.238.667a1.019 1.019 0 0 0 .211 1c.5.326 1.027.677 1.551.979.456.254.941.547 1.406.835a3.6 3.6 0 0 0-.792-2.174zm1.79 14.8c-.154-2.189-.312-4.32-.475-6.24-.206-.638-.293-1.277-.451-1.963-.226-.869-.864-1.786-.835-2.726l-.283.019c-.624 0-1.224.067-1.853.12a18.154 18.154 0 0 0-1.824.264c-.082.029-.168.038-.25.072l.082.072a10.96 10.96 0 0 0-.163 2.707 6.476 6.476 0 0 0-.686-1.138c-.168 2.856-.322 5.808-.475 8.76q3.561.028 7.219.052zm-8.759-.072c.154-2.846.3-5.7.461-8.467a10.93 10.93 0 0 1-2.05.106 2.854 2.854 0 0 0 1.3-.907 2.653 2.653 0 0 1-1.147-1.339 9.558 9.558 0 0 0 1.785.086 2.367 2.367 0 0 1-.465-.888 1.453 1.453 0 0 0 .725.547c.01-.149.019-.3.024-.442-.043-.326-.144-.653-.168-.974a1.491 1.491 0 0 0 .221.245l.115-1.877a13.46 13.46 0 0 1-2.434.394 1.394 1.394 0 0 1 .566-.485c-.475-.168-1.305.134-1.454-.442.346.034 1.171-.029 1.181-.509 0-.24-.7-.61-.806-.888.384.082.758.374 1.157.2-.1-.394-.35-.768-.48-1.157.187.163.907 1.138 1.334.854.317-.211-.024-1.488.312-1.891a2.332 2.332 0 0 0 .783 1.627c.24-3.422.485-6.677.758-9.638a18.473 18.473 0 0 1-.533-3.048 8.73 8.73 0 0 1 0-2.87 8.4 8.4 0 0 0-1.483-.634 6.421 6.421 0 0 1-.259 1.21c-.355-.888-1.109-.624-1.046.278-.087-.278-.341-.451-.48-.653a1.7 1.7 0 0 0-.6 1.258c-.6-.2-.581-.989-.941-1.459a3.715 3.715 0 0 0-1.435 1.166 4.182 4.182 0 0 1-.139-1.416c-.648.3-1.161 1.1-1.7 1.622-.067-.562.082-1.08.067-1.622a10.008 10.008 0 0 0-2.3 1.709 12.194 12.194 0 0 0 .168-1.69 9.816 9.816 0 0 0-1.819 1.574 17.658 17.658 0 0 1 .461-1.906 4.323 4.323 0 0 1-2.3 1.238c.192-.586.677-1.008.845-1.622a9.069 9.069 0 0 1-2.006.341 9.469 9.469 0 0 1-.278 1.157c-.773 8.774-1.435 20.016-1.968 31.046 4.791.059 10.253.117 16.028.166zm-24.71-.254c2.093.019 4.522.048 7.119.077.355-7.286.753-14.659 1.224-21.379a5.95 5.95 0 0 0-.989.091 1.392 1.392 0 0 1 .576.475 18.624 18.624 0 0 1-2.645-.408c.058.106.106.235.149.336-.514-.115-.729-.624-1.022-1.013-.451.245-.456.7-.811 1.051-.624.624-.13.182-.768.014-.36-.077-.154-.547-.576-.053a1.393 1.393 0 0 0-.13.874 5.963 5.963 0 0 0-.475-.7c-.317.154-.629.322-.922.49-.566.317-1.1.653-1.637.979-.038.034-.1.067-.144.106a2.439 2.439 0 0 1 .168.269l.514.072c.624.115 1.243.216 1.858.355a14.019 14.019 0 0 1 1.81.494c.13.038.226.086.346.115l.211-.211a3.937 3.937 0 0 0 .609-1.08c0 .12.053.336.053.49.432-.269 1.042-.5 1.3-.936a9.684 9.684 0 0 0-.192 1.435 1.379 1.379 0 0 0 .778-.557 2.521 2.521 0 0 1-.461.883 10.038 10.038 0 0 0 1.791-.091 2.64 2.64 0 0 1-1.152 1.325 2.877 2.877 0 0 0 1.291.926c-.946.12-1.968-.25-2.923-.082-.158-.168-.394-.269-.495-.5-.442.307-.629.922-.878 1.334a12.018 12.018 0 0 0-.154-2.712l.067-.062a.931.931 0 0 0-.255-.077 17.181 17.181 0 0 0-1.814-.274c-.619-.053-1.234-.1-1.858-.115l-.278-.019a11.047 11.047 0 0 1-.83 2.726c-.173.686-.245 1.334-.451 1.968-.341 3.926-.657 8.525-.941 13.344 1.007.019 2.015.034 2.936.043zM331 235.7a2.727 2.727 0 0 1-1.277.523c.01.293.01.581.01.878a2.741 2.741 0 0 0 .8-.269 1.129 1.129 0 0 1 .168-.5 2.264 2.264 0 0 0 .293.264.324.324 0 0 1 .13-.062.653.653 0 0 0 .043.25 1.257 1.257 0 0 1 .106.13 4.381 4.381 0 0 0 .225-.778 1.085 1.085 0 0 1-.498-.436zm-1.248 4.963v2.137c.072-.043.168-.1.245-.144.523-.312 1.037-.653 1.55-.974a1.03 1.03 0 0 0 .211-1.008.743.743 0 0 0 .542.384c0-.427.1-.826.077-1.258a10.309 10.309 0 0 0-2.3 1.714 12.932 12.932 0 0 0 .178-1.69c-.149.12-.312.235-.48.36a.466.466 0 0 0-.024.086v.134a1.792 1.792 0 0 0 .187-.1c-.019.13-.138.226-.187.356zm2.438-5.477a1.627 1.627 0 0 1-.067.552 2.44 2.44 0 0 1 .2.322 3.879 3.879 0 0 0 .139-.437 4.55 4.55 0 0 1-.273-.44zm7.939 2.741a12.837 12.837 0 0 0-1.632-1.483 18.16 18.16 0 0 0-2.558-1.6l.086 1.378a3.7 3.7 0 0 0-.447-1.349 1.129 1.129 0 0 1-.408 1.027c-.077-.322-.312-.634-.394-.941-.134.245-.331.7-.461.984a8.625 8.625 0 0 0-.874-1.181 1.654 1.654 0 0 1-.6 1.133.154.154 0 0 0 0 .067c.37-.029.619-.331.941-.5a7.813 7.813 0 0 1-.657 1.315v.024c.125-.062.374-.1.5-.163a2.606 2.606 0 0 1-.533.5c-.01.979.826.326 1.689-.144-1.042 1.186 1.291.994 1.863.274.379.394-.029.782-.394 1.085a.7.7 0 0 1 .029.091c.105 0 .216.014.336.014a6.778 6.778 0 0 1 2.026-.379 2.539 2.539 0 0 1-1.191.418c.293.053.571.072.864.115a15.5 15.5 0 0 1 2.174.5c.082.024.158.058.235.086a1.42 1.42 0 0 1 .2-.293 6.754 6.754 0 0 0-.794-.981zm-6.758 2.352c.245.062.475-.139.648-.422v-.057a2.463 2.463 0 0 0-.649.476zm4.291.2a4.072 4.072 0 0 0 .754-.221c-.294-.29-.63-.174-.755.214zm2.011 23.074c.384-6.355.806-12.4 1.262-17.568a19.7 19.7 0 0 1-.533-3.048 9.489 9.489 0 0 1-.01-2.88 8.348 8.348 0 0 0-1.474-.629 5.924 5.924 0 0 1-.264 1.21.962.962 0 0 0-.2-.326c-.192.254-.758.586-.758.8.01.47.845.542 1.186.5-.154.586-.984.274-1.459.446a1.469 1.469 0 0 1 .576.48 20.626 20.626 0 0 1-2.635-.408 3.662 3.662 0 0 1 .139.346c-.514-.13-.73-.643-1.018-1.032-.456.259-.465.706-.811 1.056-.619.638-.125.187-.778.019-.35-.086-.139-.552-.571-.043a1.37 1.37 0 0 0-.12.859 5.569 5.569 0 0 0-.49-.7c-.307.158-.619.322-.917.5-.37.2-.71.413-1.051.629v.792c.61.115 1.209.216 1.81.35a11.845 11.845 0 0 1 1.819.494 3.26 3.26 0 0 1 .326.12l.226-.226a3.691 3.691 0 0 0 .61-1.08c0 .13.057.346.057.5a3.955 3.955 0 0 0 1.291-.941 9.187 9.187 0 0 0-.187 1.426 1.332 1.332 0 0 0 .778-.562 2.553 2.553 0 0 1-.466.888 9.976 9.976 0 0 0 1.786-.077 2.629 2.629 0 0 1-1.152 1.325 2.935 2.935 0 0 0 1.3.922c-.96.115-1.973-.254-2.928-.086-.163-.168-.389-.274-.49-.49-.446.3-.638.917-.883 1.325a11.233 11.233 0 0 0-.163-2.712l.082-.062a1.893 1.893 0 0 0-.25-.077 14.4 14.4 0 0 0-1.824-.259c-.59-.053-1.162-.1-1.742-.12-.015 5.966-.082 12.154-.163 18.326zM327.548 235.1h-.038l.038.024zm0 1.834v-.7c-.168.019-.331.034-.5.043.169.235.332.461.504.658z" data-name="Path 3646" transform="translate(68.654 -108.146)" style="fill:#ffba00"/>
</svg>
